<svg xmlns="http://www.w3.org/2000/svg" viewBox="0 0 600 600"><path fill="#61DAFB" d="M301.5 182C156.5 182 39 231 39 291.5S156.5 401 301.5 401 564 352 564 291.5 446.5 182 301.5 182zm.5 195c-133.1 0-241-38.3-241-85.5S168.9 206 302 206s241 38.3 241 85.5S435.1 377 302 377z"/><path fill="#61DAFB" d="M394.7 233.7C320.9 109 218.8 32.8 166.8 63.6s-34.4 156.9 39.5 281.7 175.9 200.9 227.9 170.1 34.4-156.9-39.5-281.7zm-167.5 99.8c-67.8-114.6-89.8-226.9-49.2-251s128.5 49.3 196.3 163.9 89.8 226.9 49.2 250.9S295 448 227.2 333.5z"/><path fill="#61DAFB" d="M211.8 242.8C284.2 117.2 382.2 38 430.9 66s29.4 152.6-42.9 278.2S217.6 549 168.9 521c-48.6-28-29.4-152.6 42.9-278.2zm156.6 90.7c66.4-115.4 89.5-226.6 51.5-248.5s-122.6 53.9-189 169.3-89.5 226.6-51.5 248.5 122.6-53.9 189-169.3z"/><circle fill="#61DAFB" cx="302" cy="291" r="45"/></svg>