<svg id="Layer_1" xmlns="http://www.w3.org/2000/svg" viewBox="0 0 600 600"><style>.st0{fill:#366c99}.st1{fill:#ffcf3e}</style><path class="st0" d="M499.9 213H486v-52.4c0-14-11.2-24.6-25.3-24.6h-42.1l22.6-59.6c2.4-6.2-.8-13.3-6.9-15.6l-2.9-1.2c-6.2-2.4-13.1 1-15.5 7.2L389.6 136H216.2c-.2-1-.4-2.1-.8-3.1L185 64.8c-2.7-6-9.8-8.8-15.9-6.1l-2.3 1c-6 2.7-8.7 10.1-6 16.1l26.8 60.1h-44.8c-14 0-25.7 10.6-25.7 24.6V213h-13.7c-6.6 0-12.3 4.5-12.3 11.1v73.8c0 6.6 5.7 12.1 12.3 12.1H117v53.5c0 14 11.7 26.5 25.7 26.5h318c14 0 25.3-12.5 25.3-26.5V310h13.9c6.6 0 11.1-5.5 11.1-12.1v-73.8c0-6.6-4.5-11.1-11.1-11.1zM302 349.5c-25.1 0-48.3-5.8-67.5-15.8h-.1L186 356.1l17.7-45.4h.2l-.2-.2c-12.8-14.1-20.2-31.2-20.2-49.5 0-48.9 53.1-88.5 118.5-88.5s118.5 39.6 118.5 88.5-53.1 88.5-118.5 88.5z"/><circle class="st0" cx="253.8" cy="244.8" r="18.8"/><circle class="st0" cx="349.8" cy="244.8" r="18.8"/><path class="st1" d="M520.2 480.4c0-.4-.2-.8-.2-1.2v-41c0-15.8-12.4-28.3-28.3-28.3h-379C96.9 410 84 422.4 84 438.3V479h436l.2 1.4z"/></svg>