<svg xmlns="http://www.w3.org/2000/svg" viewBox="0 0 600 600"><path fill="#FF7544" d="M300 86c-100 0-181 79.3-181 179.5 0 70.9 40.6 132.3 99.7 162.2V460c0 16 13 29 29 29h9s.7 37.7 38.7 39.7 42.7-26.7 46-39.7h11c16 0 29-13 29-29v-32.3c59.1-29.9 99.7-91.3 99.7-162.2C481 165.3 400 86 300 86zm65.7 331.7v40.8c0 9.6-7.9 17.5-17.5 17.5h-97.7c-9.6 0-17.5-7.9-17.5-17.5v-40.9c-59.4-25.2-101-83.1-101-150.6 0-90.6 75-164 167.5-164S467 176.4 467 267c0 67.6-41.7 125.6-101.3 150.7z"/><path fill="#3F3B3C" d="M394.3 239.4s34.9-4 45.5 24.7-9.8 45.1-9.8 45.1.8-15.2-17.3-27.1l7.5-11.6s2-9.2-4.3-3.6L408 276s2.8-19.5-13.7-36.6zm27.9-3.6s-16.9-6.4-34.5-1.6c0 0-10.6-6.8-21.2-6 0 0-3.5-21.5-20.4-26.3 0 0 1.6-15.6-3.5-14 0 0 3.8-4.7 9.7-6.4 6-1.7 14-.3 22.1 5 16.1 10.6 6.3 30.1 6.3 30.1l1.8 2.8s8.4 2.4 8.4-23.5c-.1 0 33.6-2.8 31.3 39.9zM339 198.5s-9.4-4.8-23 2c0 0-3.3 0-6.7-1.8 0 0-20.4-28.1-10.8-3.8 0 0-18.8-.8-25.1 7.4l-7.3-8.6s-4.5-5.1 2.2-13.7c0 0 10.2-12.8 23-14.8s23.7 1.6 23.7 1.6 19.5 6 24 31.7zm-81 23.7l6.7-11.4s.8-7.4-3.4-11.8-8.5-8.2-8.5-8.2-11-9.2-27.7 0c0 0-6.7 5.2-10.2 11.4 0 0-.2 4.4 3.3 6 0 0 6.7 10.5-5.5 4.8-12.2-5.8-14.3-4.8-14.3-4.8s-19.2-2.6-25.3 20.5c-6.1 23.1 22.6 32.9 30.4 31.9.1.1-1.4-53.4 54.5-38.4z"/><path fill="#3F3B3C" d="M353.9 307.8s35.5 9.2 46.3-30.3c0 0 6.9-40.1-38.8-41.7 0 0-8.4-44.5-47.3-26.3 0 0-17.5-18.1-40.8 1.4 0 0 42.4-9.4 43.5 39.7l5.9 4.5s17.3-31.4 35.9 3.7c0 0 13.9-1.4 19.8 4.6s-4.7 7.6-5.1 5.2c-.4-2.4-8.2-5.4-11.8-3.4 0 0 .2 25.7-6.5 33.9-6.6 8.1-1.1 8.7-1.1 8.7z"/><path fill="#3F3B3C" d="M404.1 289s-7.5 23.9-35.9 26.3c0 0-8.2 11.4-25.7 18.3 0 0-4.5 26.9 24.1 24.5 0 0 24.1-5.4 12.8-29.1l4.3-4.4s6.1 4.6 5.3 14c0 0 0 4.4 8.4 1.4 8.4-3 16.2-7.2 21.1-14.8 4.9-7.6 7.3-25.1-7.4-36.3.1.1-5.8-6.1-7 .1zm-73.4-17.5v12.9s-4.4 11.1-6.2 0c-1.8-11.1-5.3-19.1-5.3-19.1s-12.4-25.6-36.5-10c-24.1 15.6-16.2 46.7-16.2 46.7s8.5 15.8 24.4 6.7c0 0 3.2-1.3-.3-7.9-3.5-6.6-2.6-9.9-2.6-9.9s-1.2-11.4 7.4-1.5c0 0 3.2 20.3 24.4 24.5C341 318.1 353 284 353.3 278c.3-6 .2-19.3-10.8-27.9 0 0-12.2-2.6-13.6 8.4-1.5 11.2 1.8 13 1.8 13z"/><path fill="#3F3B3C" d="M358.3 315.7s-7.5 0-14.4-3.6c0 0-26.2 20.3-43.3 0 0 0-15.6 12-24.4 8.7 0 0 9 61.6 60.7 28.4l-1.9-13.7s-6.2 7.4-27.4 2.6c0 0-11.5-3.3 1.6-5.1.1.1 24.4 4 49.1-17.3zM270 335.6s-13.8 1.1-17.9-1.6c-4.1-2.7-7.9 1.6-7.9 1.6s-10.3 5.3-15.9 7.4c-5.6 2.1 7.4 11.4 7.4 11.4s19.1 13.5 37.7-1.8c0 0 7.7-3.3 2.9-8.1-4.8-4.8-6.3-8.9-6.3-8.9zm-.8-19.9v10.5s-2.1 3.9-6.2 2.1-1.5.8-17.1-6c0 0-20.6 22.8-38.8 6.5-18.2-16.3-7.7-31-7.9-29.8-.3 1.2 4.7-12 12.7-15 0 0 16.6 18.5 40.5 11.7 0 0 6-1.8 6 5.1-.1 6.9 7.8 14.3 10.8 14.9z"/><path fill="#3F3B3C" d="M309.3 242.7s-10.7-46.1-46.3-12c0 0-2.2 3.3-10.7-2.1s-27.6 1.8-27.6 1.8-21.5 12-12.1 40.1c0 0 9.5 23.3 39.6 18.8 0 0 .2-.8 5.7 0 0 0-1.1-5.1 1.8-14 0 0 4.8-6 0-8.4 0 0-4.5-12.9-20.4-9.9 0 0-10.9-2.2.3-7.2 11.2-5.1 26.8 10.9 26.8 10.9s19.7-24.9 37.7-16.8c.1 0 3.6 4.2 5.2-1.2zm-106 26.1s5.3 6.6 2.9 10.8c0 0-11.2 6.3-14.7 18.2 0 0-7.9 5.1-10.9 9.3-2.9 4.2-9.7-6.3-9.7-6.3s-16.8-25.3 4.1-45.5l28.3 13.5zm-15.1 40.5s-.6 20.8 28.5 35.1c0 0-18.2 8.7-28.5-3-10.3-11.6-5-30.4 0-32.1zM290 362s2.7 5 10.5 3.3V476H290V362z"/><path fill="#F37547" d="M87.4 266.5L53.7 272c-4.1.7-8.1-2.2-8.8-6.3-.7-4.1 2.2-8.1 6.3-8.8l33.6-5.5c4.1-.7 8.1 2.2 8.8 6.3.8 4.2-2.1 8.1-6.2 8.8z"/><path fill="#FF7544" d="M100.3 336.2l-31.5 13c-3.9 1.6-8.4-.3-9.9-4.1-1.6-3.9.3-8.4 4.1-9.9l31.5-13c3.9-1.6 8.4.3 9.9 4.1 1.7 3.8-.2 8.3-4.1 9.9zm-4.6-140.1l-33.4-7c-4.1-.9-6.8-4.9-5.9-9 .9-4.1 4.9-6.8 9-5.9l33.4 7c4.1.9 6.8 4.9 5.9 9-.8 4.1-4.9 6.8-9 5.9zm31.1-60.6l-27.4-20.3c-3.4-2.5-4.1-7.3-1.6-10.7 2.5-3.4 7.3-4.1 10.7-1.6l27.4 20.3c3.4 2.5 4.1 7.3 1.6 10.7-2.5 3.4-7.3 4.1-10.7 1.6z"/><path fill="#F37547" d="M510.5 265.9l28.1 5.2c4.3.8 8.3-2.1 8.9-6.4.6-4-2.2-7.8-6.1-8.6l-28.1-5.2c-4.3-.8-8.3 2.1-8.9 6.4-.6 4.1 2.2 7.9 6.1 8.6z"/><path fill="#FF7544" d="M498.5 335.5l26.8 12.5c4.1 1.9 8.6 0 10.2-4.2 1.3-3.5-.5-7.7-3.9-9.3L504.8 322c-4.1-1.9-8.6 0-10.2 4.2-1.2 3.5.5 7.7 3.9 9.3zm5.3-140.3l28-6.6c3.9-.9 6.4-4.8 5.7-8.7-.8-4.3-4.9-7-9.2-6l-28 6.6c-3.9.9-6.4 4.8-5.7 8.7.8 4.3 4.9 7 9.2 6zm-33.2-62.3l26.7-16c3.1-1.8 4.4-6 2.9-9.2-1.8-4.1-6.5-5.6-10.4-3.3l-26.7 16c-3.1 1.8-4.4 6-2.9 9.2 1.9 4.1 6.5 5.6 10.4 3.3z"/></svg>