<?xml version="1.0" encoding="utf-8"?>
<!-- Generator: Adobe Illustrator 18.0.0, SVG Export Plug-In . SVG Version: 6.00 Build 0)  -->
<!DOCTYPE svg PUBLIC "-//W3C//DTD SVG 1.1//EN" "http://www.w3.org/Graphics/SVG/1.1/DTD/svg11.dtd">
<svg version="1.1" id="Layer_1" xmlns="http://www.w3.org/2000/svg" xmlns:xlink="http://www.w3.org/1999/xlink" x="0px" y="0px"
	 viewBox="0 0 236 197" enable-background="new 0 0 236 197" xml:space="preserve">
<g transform="translate(0.000000,197.000000) scale(0.100000,-0.100000)">
	<path fill="#1A4674" d="M524,1573c-54-18-119-75-146-127c-18-34-23-65-28-183c-7-160-18-190-79-207c-30-9-31-10-31-70
		c0-61,1-62,32-71c60-19,71-48,78-208c7-155,19-194,77-249c29-28,132-80,143-73c4,3,13,24,19,48c12,43,12,44-22,78
		c-45,45-57,90-57,218c0,126-13,174-60,221l-36,36l36,35c46,45,60,94,60,218c0,133,13,183,57,222c35,30,35,30,23,75
		c-7,24-16,46-19,48S546,1581,524,1573z"/>
	<path fill="#1A4674" d="M1766,1539c-15-43-15-53-4-60c7-5,16-9,20-9s17-15,30-32c20-29,24-48,29-173c7-160,22-209,75-253l34-28
		l-30-22c-57-43-73-92-78-242c-5-149-21-201-68-222c-14-6-23-17-20-24c2-6,10-30,17-53c10-35,15-40,33-35c78,24,140,75,173,142
		c25,52,28,69,31,182c2,69,8,138,14,153c11,28,53,57,83,57c12,0,15,13,15,65c0,50-3,65-15,65c-28,0-67,24-81,51c-10,19-14,62-14,137
		c0,173-38,261-136,313C1789,1597,1787,1597,1766,1539z"/>
	<path fill="#1A4674" d="M772,778c-41-11-62-43-62-93c0-73,79-117,148-81c58,30,70,94,27,144C858,781,821,790,772,778z"/>
	<path fill="#1A4674" d="M1132,778c-41-11-62-43-62-93c0-73,79-117,148-81c58,30,70,94,27,144C1218,781,1181,790,1132,778z"/>
	<path fill="#1A4674" d="M1502,778c-41-11-62-43-62-93c0-73,79-117,148-81c58,30,70,94,27,144C1588,781,1551,790,1502,778z"/>
</g>
</svg>
