<svg xmlns="http://www.w3.org/2000/svg" viewBox="0 0 236 197"><path d="M52.4 39.7c-5.4 1.8-11.9 7.5-14.6 12.7-1.8 3.4-2.3 6.5-2.8 18.3-.7 16-1.8 19-7.9 20.7-3 .9-3.1 1-3.1 7 0 6.1.1 6.2 3.2 7.1 6 1.9 7.1 4.8 7.8 20.8.7 15.5 1.9 19.4 7.7 24.9 2.9 2.8 13.2 8 14.3 7.3.4-.3 1.3-2.4 1.9-4.8 1.2-4.3 1.2-4.4-2.2-7.8-4.5-4.5-5.7-9-5.7-21.8 0-12.6-1.3-17.4-6-22.1l-3.6-3.6 3.6-3.5c4.6-4.5 6-9.4 6-21.8 0-13.3 1.3-18.3 5.7-22.2 3.5-3 3.5-3 2.3-7.5-.7-2.4-1.6-4.6-1.9-4.8s-2.5.3-4.7 1.1zm124.2 3.4c-1.5 4.3-1.5 5.3-.4 6 .7.5 1.6.9 2 .9s1.7 1.5 3 3.2c2 2.9 2.4 4.8 2.9 17.3.7 16 2.2 20.9 7.5 25.3l3.4 2.8-3 2.2c-5.7 4.3-7.3 9.2-7.8 24.2-.5 14.9-2.1 20.1-6.8 22.2-1.4.6-2.3 1.7-2 2.4.2.6 1 3 1.7 5.3 1 3.5 1.5 4 3.3 3.5 7.8-2.4 14-7.5 17.3-14.2 2.5-5.2 2.8-6.9 3.1-18.2.2-6.9.8-13.8 1.4-15.3 1.1-2.8 5.3-5.7 8.3-5.7 1.2 0 1.5-1.3 1.5-6.5 0-5-.3-6.5-1.5-6.5-2.8 0-6.7-2.4-8.1-5.1-1-1.9-1.4-6.2-1.4-13.7 0-17.3-3.8-26.1-13.6-31.3-8.5-4.6-8.7-4.6-10.8 1.2zm-99.4 76.1c-4.1 1.1-6.2 4.3-6.2 9.3 0 7.3 7.9 11.7 14.8 8.1 5.8-3 7-9.4 2.7-14.4-2.7-3.3-6.4-4.2-11.3-3zm36 0c-4.1 1.1-6.2 4.3-6.2 9.3 0 7.3 7.9 11.7 14.8 8.1 5.8-3 7-9.4 2.7-14.4-2.7-3.3-6.4-4.2-11.3-3zm37 0c-4.1 1.1-6.2 4.3-6.2 9.3 0 7.3 7.9 11.7 14.8 8.1 5.8-3 7-9.4 2.7-14.4-2.7-3.3-6.4-4.2-11.3-3z" fill="#1A4674"/></svg>