<?xml version="1.0" encoding="utf-8"?>
<!-- Generator: Adobe Illustrator 18.0.0, SVG Export Plug-In . SVG Version: 6.00 Build 0)  -->
<!DOCTYPE svg PUBLIC "-//W3C//DTD SVG 1.1//EN" "http://www.w3.org/Graphics/SVG/1.1/DTD/svg11.dtd">
<svg version="1.1" id="レイヤー_2" xmlns="http://www.w3.org/2000/svg" xmlns:xlink="http://www.w3.org/1999/xlink" x="0px"
	 y="0px" viewBox="0 0 1024 1024" style="enable-background:new 0 0 1024 1024;" xml:space="preserve">
<style type="text/css">
	.st0{display:none;fill:#FFFFFF;}
	.st1{fill:#A4CA39;}
</style>
<rect x="1.1" y="0.5" class="st0" width="1024" height="1024"/>
<g>
	<path class="st1" d="M251.9,384.9c-24.5,0-44.4,19.9-44.4,44.4h0v75.5v35.5v75.5h0c0,24.5,19.9,44.4,44.4,44.4
		c24.5,0,44.4-19.9,44.4-44.4h0v-75.5v-35.5v-75.5h0C296.3,404.8,276.4,384.9,251.9,384.9z"/>
	<path class="st1" d="M818.7,429.3c0-24.5-19.9-44.4-44.4-44.4c-24.5,0-44.4,19.9-44.4,44.4h0v75.5v35.5v75.5h0
		c0,24.5,19.9,44.4,44.4,44.4c24.5,0,44.4-19.9,44.4-44.4l0,0v-75.5v-35.5V429.3L818.7,429.3z"/>
	<path class="st1" d="M314.4,392.7h-2.2v292.7c0,24.4,20,44.4,44.4,44.4H394v26.5v75.5h0c0,24.5,19.9,44.4,44.4,44.4
		c24.5,0,44.4-19.9,44.4-44.4l0,0v-75.5v-26.5h60.6v26.5v75.5c0,24.5,19.9,44.4,44.4,44.4c24.5,0,44.4-19.9,44.4-44.4v-75.5v-26.5
		h37.4c24.4,0,44.4-20,44.4-44.4V392.7h-0.7H314.4z"/>
	<path class="st1" d="M713.6,377.1v-21.4c-0.6-6.1-1.5-12.1-2.7-17.9c-11-52.1-47.3-96.2-97.1-121.8l30.6-56.5
		c1.9-3.5,0.6-7.9-2.9-9.8c-3.5-1.9-7.9-0.6-9.8,2.9l-31,57.3c-26.4-11.3-56-17.7-87.2-17.7c-31.5,0-61.3,6.5-87.8,17.9l-31.2-57.5
		c-1.9-3.5-6.3-4.8-9.8-2.9c-3.5,1.9-4.8,6.3-2.9,9.8l30.8,56.8c-47.5,24.6-82.6,66-95.1,115.1c-3.2,12.7-4.9,26-4.9,39.6
		c0,2,0.1,4.1,0.1,6.1H713.6z M604.5,268.4c10.4,0,18.9,8.4,18.9,18.9c0,10.4-8.4,18.9-18.9,18.9c-10.4,0-18.9-8.4-18.9-18.9
		C585.6,276.8,594.1,268.4,604.5,268.4z M421.7,268.4c10.4,0,18.9,8.4,18.9,18.9c0,10.4-8.4,18.9-18.9,18.9
		c-10.4,0-18.9-8.4-18.9-18.9C402.8,276.8,411.3,268.4,421.7,268.4z"/>
</g>
</svg>
