<?xml version="1.0" encoding="utf-8"?>
<!-- Generator: Adobe Illustrator 18.0.0, SVG Export Plug-In . SVG Version: 6.00 Build 0)  -->
<!DOCTYPE svg PUBLIC "-//W3C//DTD SVG 1.1//EN" "http://www.w3.org/Graphics/SVG/1.1/DTD/svg11.dtd">
<svg version="1.1" id="Layer_1" xmlns="http://www.w3.org/2000/svg" xmlns:xlink="http://www.w3.org/1999/xlink" x="0px" y="0px"
	 viewBox="0 0 115 115" enable-background="new 0 0 115 115" xml:space="preserve">
<image display="none" overflow="visible" width="115" height="115" xlink:href="../coding-blocks.github.io/img/cb/logosc/color_cpp.png" >
</image>
<g>
	<path fill="#5C8DBC" d="M9.7,83.3V35.5c0,0,0-3.4,3.3-5.2c3.3-1.8,39.6-23.5,39.6-23.5s4.6-3.1,9.4,0c0,0,43.1,23.9,42.4,25.3
		L85.3,43.3c0,0-3.6-8.4-13.1-13c-11.3-5.5-29.7-6.2-42.9,13.3c0,0-8.6,13.5,0.3,31.6L10.6,85.9C10.6,85.9,9.7,85.3,9.7,83.3z"/>
	<path fill="#5C8DBC" d="M70.8,51.3"/>
	<path fill="#5C8DBC" d="M71,51.3c-2.8-4.7-7.9-7.9-13.8-7.9c-8.8,0-16,7.2-16,16c0,2.8,0.7,5.4,2,7.7L71,51.3z"/>
	<path fill="#194674" d="M43.1,67c2.8,4.7,7.9,7.9,13.8,7.9c8.8,0,16-7.2,16-16c0-2.8-0.7-5.4-2-7.7L43.1,67z"/>
	<path fill="#1B598E" d="M104.4,32.1c0,0,1.3,52.6-0.3,53.6L58,58.6L104.4,32.1z"/>
</g>
<polygon fill="#FFFFFF" points="90,57 86.1,57 86.1,52.9 81.9,52.9 81.9,57 77.9,57 77.9,61.1 81.9,61.1 81.9,65 86.1,65 86.1,61.1 
	90,61.1 "/>
<polygon fill="#FFFFFF" points="103.6,57 99.7,57 99.7,52.9 95.5,52.9 95.5,57 91.5,57 91.5,61.1 95.5,61.1 95.5,65 99.7,65 
	99.7,61.1 103.6,61.1 "/>
<path fill="#194674" d="M29.5,75.1c0,0,9.2,17,28.5,16.1s27.3-16.6,27.3-16.6l18.7,10.8c0,0,4.1,0.8-41.6,25.7c0,0-4.9,3.3-10.2,0
	c0,0-41.3-23.1-41.6-25.3L29.5,75.1z"/>
</svg>
