<svg id="レイヤー_2" xmlns="http://www.w3.org/2000/svg" viewBox="0 0 1024 1024"><style>.st0{display:none;fill:#fff}.st1{fill:#a4ca39}</style><path class="st0" d="M1.1.5h1024v1024H1.1z"/><path class="st1" d="M251.9 384.9c-24.5 0-44.4 19.9-44.4 44.4v186.5c0 24.5 19.9 44.4 44.4 44.4s44.4-19.9 44.4-44.4V429.3c0-24.5-19.9-44.4-44.4-44.4zm566.8 44.4c0-24.5-19.9-44.4-44.4-44.4s-44.4 19.9-44.4 44.4v186.5c0 24.5 19.9 44.4 44.4 44.4s44.4-19.9 44.4-44.4V429.3zm-504.3-36.6h-2.2v292.7c0 24.4 20 44.4 44.4 44.4H394v102c0 24.5 19.9 44.4 44.4 44.4s44.4-19.9 44.4-44.4v-102h60.6v102c0 24.5 19.9 44.4 44.4 44.4s44.4-19.9 44.4-44.4v-102h37.4c24.4 0 44.4-20 44.4-44.4V392.7H314.4zm399.2-15.6v-21.4c-.6-6.1-1.5-12.1-2.7-17.9-11-52.1-47.3-96.2-97.1-121.8l30.6-56.5c1.9-3.5.6-7.9-2.9-9.8-3.5-1.9-7.9-.6-9.8 2.9l-31 57.3c-26.4-11.3-56-17.7-87.2-17.7-31.5 0-61.3 6.5-87.8 17.9l-31.2-57.5c-1.9-3.5-6.3-4.8-9.8-2.9-3.5 1.9-4.8 6.3-2.9 9.8l30.8 56.8c-47.5 24.6-82.6 66-95.1 115.1-3.2 12.7-4.9 26-4.9 39.6 0 2 .1 4.1.1 6.1h400.9zM604.5 268.4c10.4 0 18.9 8.4 18.9 18.9 0 10.4-8.4 18.9-18.9 18.9-10.4 0-18.9-8.4-18.9-18.9 0-10.5 8.5-18.9 18.9-18.9zm-182.8 0c10.4 0 18.9 8.4 18.9 18.9 0 10.4-8.4 18.9-18.9 18.9-10.4 0-18.9-8.4-18.9-18.9 0-10.5 8.5-18.9 18.9-18.9z"/></svg>