<?xml version="1.0" encoding="utf-8"?>
<!-- Generator: Adobe Illustrator 18.0.0, SVG Export Plug-In . SVG Version: 6.00 Build 0)  -->
<!DOCTYPE svg PUBLIC "-//W3C//DTD SVG 1.1//EN" "http://www.w3.org/Graphics/SVG/1.1/DTD/svg11.dtd">
<svg version="1.1" id="Layer_1" xmlns="http://www.w3.org/2000/svg" xmlns:xlink="http://www.w3.org/1999/xlink" x="0px" y="0px"
	 viewBox="0 0 600 600" enable-background="new 0 0 600 600" xml:space="preserve">
<image display="none" overflow="visible" width="115" height="115" xlink:href="../coding-blocks.github.io/img/cb/logosc/color_react.png"  transform="matrix(5.2087 0 0 5.2087 1 0)">
</image>
<path fill="#61DAFB" d="M301.5,182C156.5,182,39,231,39,291.5S156.5,401,301.5,401S564,352,564,291.5S446.5,182,301.5,182z M302,377
	c-133.1,0-241-38.3-241-85.5S168.9,206,302,206s241,38.3,241,85.5S435.1,377,302,377z"/>
<path fill="#61DAFB" d="M394.7,233.7C320.9,109,218.8,32.8,166.8,63.6s-34.4,156.9,39.5,281.7s175.9,200.9,227.9,170.1
	S468.6,358.5,394.7,233.7z M227.2,333.5C159.4,218.9,137.4,106.6,178,82.5s128.5,49.3,196.3,163.9s89.8,226.9,49.2,250.9
	S295,448,227.2,333.5z"/>
<path fill="#61DAFB" d="M211.8,242.8C284.2,117.2,382.2,38,430.9,66s29.4,152.6-42.9,278.2S217.6,549,168.9,521
	C120.3,493,139.5,368.4,211.8,242.8z M368.4,333.5c66.4-115.4,89.5-226.6,51.5-248.5s-122.6,53.9-189,169.3s-89.5,226.6-51.5,248.5
	S302,448.9,368.4,333.5z"/>
<circle fill="#61DAFB" cx="302" cy="291" r="45"/>
</svg>
