<?xml version="1.0" encoding="utf-8"?>
<!-- Generator: Adobe Illustrator 18.0.0, SVG Export Plug-In . SVG Version: 6.00 Build 0)  -->
<!DOCTYPE svg PUBLIC "-//W3C//DTD SVG 1.1//EN" "http://www.w3.org/Graphics/SVG/1.1/DTD/svg11.dtd">
<svg version="1.1" id="Layer_1" xmlns="http://www.w3.org/2000/svg" xmlns:xlink="http://www.w3.org/1999/xlink" x="0px" y="0px"
	 viewBox="0 0 600 600" enable-background="new 0 0 600 600" xml:space="preserve">
<image display="none" overflow="visible" width="115" height="115" xlink:href="color_ml2.jpg"  transform="matrix(5.2087 0 0 5.2087 1 0)">
</image>
<path fill="#3F3B3C" d="M141.3,145.3c0,0-59.3-6.7-77.3,41.3S80.7,262,80.7,262s-1.3-25.3,29.3-45.3l-12.7-19.3c0,0-3.3-15.3,7.3-6
	l13.3,15.3C118,206.7,113.3,174,141.3,145.3z"/>
<path fill="#3F3B3C" d="M94,139.3c0,0,28.7-10.7,58.7-2.7c0,0,18-11.3,36-10c0,0,6-36,34.7-44c0,0-2.7-26,6-23.3
	c0,0-6.5-7.9-16.4-10.7c-10.1-2.9-23.7-0.6-37.6,8.4c-27.3,17.7-10.7,50.4-10.7,50.4l-3,4.7c0,0-14.3,4-14.3-39.3
	C147.3,72.7,90,68,94,139.3z"/>
<path fill="#3F3B3C" d="M235.3,77c0,0,16-8,39,3.3c0,0,5.7-0.1,11.3-3c0,0,34.7-47,18.3-6.3c0,0,32-1.3,42.7,12.3L359,68.9
	c0,0,7.7-8.5-3.7-22.9c0,0-17.3-21.3-39-24.7C294.7,18,276,24,276,24S243,34,235.3,77z"/>
<path fill="#3F3B3C" d="M373,116.7l-11.5-19c0,0-1.3-12.3,5.7-19.7s14.4-13.7,14.4-13.7s18.7-15.3,47,0c0,0,11.3,8.7,17.3,19
	c0,0,0.3,7.4-5.7,10c0,0-11.3,17.6,9.3,8c20.7-9.7,24.3-8,24.3-8s32.7-4.4,43,34.3c10.3,38.7-38.3,55-51.7,53.3
	C465.3,181,468,91.7,373,116.7z"/>
<path fill="#3F3B3C" d="M210,259.7c0,0-60.3,15.3-78.7-50.7c0,0-11.7-67,66-69.7c0,0,14.3-74.3,80.3-44c0,0,29.7-30.3,69.3,2.3
	c0,0-72-15.7-74,66.3l-10,7.5c0,0-29.3-52.5-61,6.2c0,0-23.7-2.3-33.7,7.7s8,12.7,8.7,8.7s14-9,20-5.7c0,0-0.3,43,11,56.7
	C219.3,258.7,210,259.7,210,259.7z"/>
<path fill="#3F3B3C" d="M124.7,228.3c0,0,12.7,40,61,44c0,0,14,19,43.7,30.7c0,0,7.7,45-41,41c0,0-41-9-21.7-48.7l-7.3-7.3
	c0,0-10.3,7.7-9,23.3c0,0,0,7.3-14.3,2.3s-27.5-12-35.9-24.7s-12.4-42,12.6-60.7C112.7,228.3,122.7,218,124.7,228.3z"/>
<path fill="#3F3B3C" d="M249.5,199v21.5c0,0,7.5,18.5,10.5,0s9-32,9-32s21-42.8,62-16.6s27.5,78.1,27.5,78.1S344,276.4,317,261.2
	c0,0-5.5-2.2,0.5-13.2s4.5-16.5,4.5-16.5s2-19-12.5-2.5c0,0-5.5,34-41.5,41s-56.5-50-57-60s-0.3-32.2,18.3-46.6
	c0,0,20.7-4.4,23.2,14.1S249.5,199,249.5,199z"/>
<path fill="#3F3B3C" d="M202.5,273c0,0,12.8,0,24.5-6c0,0,44.5,34,73.5,0c0,0,26.5,20,41.5,14.5c0,0-15.3,103-103.1,47.5l3.1-22.9
	c0,0,10.5,12.4,46.5,4.4c0,0,19.5-5.5-2.7-8.5C285.8,302,244.5,308.5,202.5,273z"/>
<path fill="#3F3B3C" d="M352.5,306.2c0,0,23.5,1.8,30.5-2.7s13.5,2.7,13.5,2.7s17.5,8.8,27,12.3s-12.5,19-12.5,19s-32.5,22.5-64-3
	c0,0-13-5.5-5-13.5S352.5,306.2,352.5,306.2z"/>
<path fill="#3F3B3C" d="M354,273v17.5c0,0,3.5,6.5,10.5,3.5s2.5,1.3,29-10.1c0,0,35,38.2,66,10.9s13-51.8,13.5-49.8s-8-20-21.5-25
	c0,0-28.2,31-68.9,19.5c0,0-10.1-3-10.1,8.5S359,272,354,273z"/>
<path fill="#3F3B3C" d="M285.8,151c0,0,18.2-77,78.7-20c0,0,3.8,5.5,18.1-3.5c14.4-9,46.9,3,46.9,3s36.5,20,20.5,67
	c0,0-16.2,39-67.4,31.5c0,0-0.3-1.4-9.7,0c0,0,1.9-8.5-3-23.5c0,0-8.1-10,0-14c0,0,7.6-21.5,34.6-16.5c0,0,18.5-3.6-0.5-12.1
	s-45.5,18.2-45.5,18.2s-33.5-41.6-64-28.1C294.5,153,288.5,160,285.8,151z"/>
<path fill="#3F3B3C" d="M466,194.5c0,0-9,11-5,18c0,0,19,10.5,25,30.5c0,0,13.5,8.5,18.5,15.5S521,248,521,248s28.5-42.3-7-76.1
	L466,194.5z"/>
<path fill="#3F3B3C" d="M491.5,262.3c0,0,1,34.7-48.5,58.7c0,0,31,14.5,48.5-5C509,296.5,500,265.1,491.5,262.3z"/>
<path fill="#FF7544" d="M229.3,358l-6.3,97h44l-6,86h20l61-105c0,0,13-14-11-21l-30.5,2l46.5-65c0,0-7.9-2.7-16-14
	c0,0-46,33.3-80,8.7C251,346.7,230.8,336,229.3,358z"/>
</svg>
