<?xml version="1.0" encoding="utf-8"?>
<!-- Generator: Adobe Illustrator 18.0.0, SVG Export Plug-In . SVG Version: 6.00 Build 0)  -->
<!DOCTYPE svg PUBLIC "-//W3C//DTD SVG 1.1//EN" "http://www.w3.org/Graphics/SVG/1.1/DTD/svg11.dtd">
<svg version="1.1" id="Layer_1" xmlns="http://www.w3.org/2000/svg" xmlns:xlink="http://www.w3.org/1999/xlink" x="0px" y="0px"
	 viewBox="0 0 600 600" enable-background="new 0 0 600 600" xml:space="preserve">
<image display="none" overflow="visible" width="115" height="115" xlink:href="../coding-blocks.github.io/img/cb/logosc/color_ml.png"  transform="matrix(5.1217 0 0 5.1217 6 5)">
</image>
<path fill="#FF7544" d="M300,86c-100,0-181,79.3-181,179.5c0,70.9,40.6,132.3,99.7,162.2V460c0,16,13,29,29,29h9
	c0,0,0.7,37.7,38.7,39.7s42.7-26.7,46-39.7h11c16,0,29-13,29-29v-32.3c59.1-29.9,99.7-91.3,99.7-162.2C481,165.3,400,86,300,86z
	 M365.7,417.7v40.8c0,9.6-7.9,17.5-17.5,17.5h-97.7c-9.6,0-17.5-7.9-17.5-17.5v-40.9c-59.4-25.2-101-83.1-101-150.6
	c0-90.6,75-164,167.5-164S467,176.4,467,267C467,334.6,425.3,392.6,365.7,417.7z"/>
<path fill="#3F3B3C" d="M394.3,239.4c0,0,34.9-4,45.5,24.7s-9.8,45.1-9.8,45.1s0.8-15.2-17.3-27.1l7.5-11.6c0,0,2-9.2-4.3-3.6
	L408,276C408,276,410.8,256.5,394.3,239.4z"/>
<path fill="#3F3B3C" d="M422.2,235.8c0,0-16.9-6.4-34.5-1.6c0,0-10.6-6.8-21.2-6c0,0-3.5-21.5-20.4-26.3c0,0,1.6-15.6-3.5-14
	c0,0,3.8-4.7,9.7-6.4c6-1.7,14-0.3,22.1,5c16.1,10.6,6.3,30.1,6.3,30.1l1.8,2.8c0,0,8.4,2.4,8.4-23.5
	C390.8,195.9,424.5,193.1,422.2,235.8z"/>
<path fill="#3F3B3C" d="M339,198.5c0,0-9.4-4.8-23,2c0,0-3.3,0-6.7-1.8c0,0-20.4-28.1-10.8-3.8c0,0-18.8-0.8-25.1,7.4l-7.3-8.6
	c0,0-4.5-5.1,2.2-13.7c0,0,10.2-12.8,23-14.8c12.8-2,23.7,1.6,23.7,1.6S334.5,172.8,339,198.5z"/>
<path fill="#3F3B3C" d="M258,222.2l6.7-11.4c0,0,0.8-7.4-3.4-11.8s-8.5-8.2-8.5-8.2s-11-9.2-27.7,0c0,0-6.7,5.2-10.2,11.4
	c0,0-0.2,4.4,3.3,6c0,0,6.7,10.5-5.5,4.8c-12.2-5.8-14.3-4.8-14.3-4.8s-19.2-2.6-25.3,20.5c-6.1,23.1,22.6,32.9,30.4,31.9
	C203.6,260.7,202.1,207.2,258,222.2z"/>
<path fill="#3F3B3C" d="M353.9,307.8c0,0,35.5,9.2,46.3-30.3c0,0,6.9-40.1-38.8-41.7c0,0-8.4-44.5-47.3-26.3c0,0-17.5-18.1-40.8,1.4
	c0,0,42.4-9.4,43.5,39.7l5.9,4.5c0,0,17.3-31.4,35.9,3.7c0,0,13.9-1.4,19.8,4.6c5.9,6-4.7,7.6-5.1,5.2c-0.4-2.4-8.2-5.4-11.8-3.4
	c0,0,0.2,25.7-6.5,33.9C348.4,307.2,353.9,307.8,353.9,307.8z"/>
<path fill="#3F3B3C" d="M404.1,289c0,0-7.5,23.9-35.9,26.3c0,0-8.2,11.4-25.7,18.3c0,0-4.5,26.9,24.1,24.5c0,0,24.1-5.4,12.8-29.1
	l4.3-4.4c0,0,6.1,4.6,5.3,14c0,0,0,4.4,8.4,1.4c8.4-3,16.2-7.2,21.1-14.8c4.9-7.6,7.3-25.1-7.4-36.3
	C411.2,289,405.3,282.8,404.1,289z"/>
<path fill="#3F3B3C" d="M330.7,271.5v12.9c0,0-4.4,11.1-6.2,0c-1.8-11.1-5.3-19.1-5.3-19.1s-12.4-25.6-36.5-10
	c-24.1,15.6-16.2,46.7-16.2,46.7s8.5,15.8,24.4,6.7c0,0,3.2-1.3-0.3-7.9c-3.5-6.6-2.6-9.9-2.6-9.9s-1.2-11.4,7.4-1.5
	c0,0,3.2,20.3,24.4,24.5C341,318.1,353,284,353.3,278c0.3-6,0.2-19.3-10.8-27.9c0,0-12.2-2.6-13.6,8.4
	C327.4,269.7,330.7,271.5,330.7,271.5z"/>
<path fill="#3F3B3C" d="M358.3,315.7c0,0-7.5,0-14.4-3.6c0,0-26.2,20.3-43.3,0c0,0-15.6,12-24.4,8.7c0,0,9,61.6,60.7,28.4l-1.9-13.7
	c0,0-6.2,7.4-27.4,2.6c0,0-11.5-3.3,1.6-5.1C309.3,333.1,333.6,337,358.3,315.7z"/>
<path fill="#3F3B3C" d="M270,335.6c0,0-13.8,1.1-17.9-1.6c-4.1-2.7-7.9,1.6-7.9,1.6s-10.3,5.3-15.9,7.4c-5.6,2.1,7.4,11.4,7.4,11.4
	s19.1,13.5,37.7-1.8c0,0,7.7-3.3,2.9-8.1C271.5,339.7,270,335.6,270,335.6z"/>
<path fill="#3F3B3C" d="M269.2,315.7v10.5c0,0-2.1,3.9-6.2,2.1s-1.5,0.8-17.1-6c0,0-20.6,22.8-38.8,6.5c-18.2-16.3-7.7-31-7.9-29.8
	c-0.3,1.2,4.7-12,12.7-15c0,0,16.6,18.5,40.5,11.7c0,0,6-1.8,6,5.1C258.3,307.7,266.2,315.1,269.2,315.7z"/>
<path fill="#3F3B3C" d="M309.3,242.7c0,0-10.7-46.1-46.3-12c0,0-2.2,3.3-10.7-2.1c-8.5-5.4-27.6,1.8-27.6,1.8s-21.5,12-12.1,40.1
	c0,0,9.5,23.3,39.6,18.8c0,0,0.2-0.8,5.7,0c0,0-1.1-5.1,1.8-14c0,0,4.8-6,0-8.4c0,0-4.5-12.9-20.4-9.9c0,0-10.9-2.2,0.3-7.2
	c11.2-5.1,26.8,10.9,26.8,10.9s19.7-24.9,37.7-16.8C304.2,243.9,307.7,248.1,309.3,242.7z"/>
<path fill="#3F3B3C" d="M203.3,268.8c0,0,5.3,6.6,2.9,10.8c0,0-11.2,6.3-14.7,18.2c0,0-7.9,5.1-10.9,9.3c-2.9,4.2-9.7-6.3-9.7-6.3
	s-16.8-25.3,4.1-45.5L203.3,268.8z"/>
<path fill="#3F3B3C" d="M188.2,309.3c0,0-0.6,20.8,28.5,35.1c0,0-18.2,8.7-28.5-3C177.9,329.8,183.2,311,188.2,309.3z"/>
<path fill="#3F3B3C" d="M290,362c0,0,2.7,5,10.5,3.3V476H290V362z"/>
<path fill="#F37547" d="M87.4,266.5L53.7,272c-4.1,0.7-8.1-2.2-8.8-6.3v0c-0.7-4.1,2.2-8.1,6.3-8.8l33.6-5.5
	c4.1-0.7,8.1,2.2,8.8,6.3v0C94.4,261.9,91.5,265.8,87.4,266.5z"/>
<path fill="#FF7544" d="M100.3,336.2l-31.5,13c-3.9,1.6-8.4-0.3-9.9-4.1h0c-1.6-3.9,0.3-8.4,4.1-9.9l31.5-13
	c3.9-1.6,8.4,0.3,9.9,4.1l0,0C106.1,330.1,104.2,334.6,100.3,336.2z"/>
<path fill="#FF7544" d="M95.7,196.1l-33.4-7c-4.1-0.9-6.8-4.9-5.9-9l0,0c0.9-4.1,4.9-6.8,9-5.9l33.4,7c4.1,0.9,6.8,4.9,5.9,9v0
	C103.9,194.3,99.8,197,95.7,196.1z"/>
<path fill="#FF7544" d="M126.8,135.5l-27.4-20.3c-3.4-2.5-4.1-7.3-1.6-10.7l0,0c2.5-3.4,7.3-4.1,10.7-1.6l27.4,20.3
	c3.4,2.5,4.1,7.3,1.6,10.7v0C135,137.3,130.2,138,126.8,135.5z"/>
<path fill="#F37547" d="M510.5,265.9l28.1,5.2c4.3,0.8,8.3-2.1,8.9-6.4v0c0.6-4-2.2-7.8-6.1-8.6l-28.1-5.2c-4.3-0.8-8.3,2.1-8.9,6.4
	l0,0C503.8,261.4,506.6,265.2,510.5,265.9z"/>
<path fill="#FF7544" d="M498.5,335.5l26.8,12.5c4.1,1.9,8.6,0,10.2-4.2l0,0c1.3-3.5-0.5-7.7-3.9-9.3L504.8,322
	c-4.1-1.9-8.6,0-10.2,4.2v0C493.4,329.7,495.1,333.9,498.5,335.5z"/>
<path fill="#FF7544" d="M503.8,195.2l28-6.6c3.9-0.9,6.4-4.8,5.7-8.7v0c-0.8-4.3-4.9-7-9.2-6l-28,6.6c-3.9,0.9-6.4,4.8-5.7,8.7v0
	C495.4,193.5,499.5,196.2,503.8,195.2z"/>
<path fill="#FF7544" d="M470.6,132.9l26.7-16c3.1-1.8,4.4-6,2.9-9.2v0c-1.8-4.1-6.5-5.6-10.4-3.3l-26.7,16c-3.1,1.8-4.4,6-2.9,9.2v0
	C462.1,133.7,466.7,135.2,470.6,132.9z"/>
</svg>
