<?xml version="1.0" encoding="utf-8"?>
<!-- Generator: Adobe Illustrator 18.0.0, SVG Export Plug-In . SVG Version: 6.00 Build 0)  -->
<!DOCTYPE svg PUBLIC "-//W3C//DTD SVG 1.1//EN" "http://www.w3.org/Graphics/SVG/1.1/DTD/svg11.dtd">
<svg version="1.1" id="Layer_1" xmlns="http://www.w3.org/2000/svg" xmlns:xlink="http://www.w3.org/1999/xlink" x="0px" y="0px"
	 viewBox="0 0 600 600" style="enable-background:new 0 0 600 600;" xml:space="preserve">
<style type="text/css">
	.st0{fill:#366C99;}
	.st1{fill:#FFCF3E;}
</style>
<image style="display:none;overflow:visible;" width="115" height="115" xlink:href="../coding-blocks.github.io/img/cb/logosc/color_chatbots.png"  transform="matrix(5.2127 0 0 5.2127 0.5432 0.5432)">
</image>
<path class="st0" d="M499.9,213H486v-52.4c0-14-11.2-24.6-25.3-24.6h-42.1l22.6-59.6c2.4-6.2-0.8-13.3-6.9-15.6l-2.9-1.2
	c-6.2-2.4-13.1,1-15.5,7.2L389.6,136H216.2c-0.2-1-0.4-2.1-0.8-3.1l-30.4-68.1c-2.7-6-9.8-8.8-15.9-6.1l-2.3,1
	c-6,2.7-8.7,10.1-6,16.1l26.8,60.1h-44.8c-14,0-25.7,10.6-25.7,24.6V213h-13.7c-6.6,0-12.3,4.5-12.3,11.1v73.8
	c0,6.6,5.7,12.1,12.3,12.1H117v53.5c0,14,11.7,26.5,25.7,26.5h318c14,0,25.3-12.5,25.3-26.5V310h13.9c6.6,0,11.1-5.5,11.1-12.1
	v-73.8C511,217.5,506.5,213,499.9,213z M302,349.5c-25.1,0-48.3-5.8-67.5-15.8l-0.1,0L186,356.1l17.7-45.4l0.2,0
	c-0.1-0.1-0.1-0.1-0.2-0.2c-12.8-14.1-20.2-31.2-20.2-49.5c0-48.9,53.1-88.5,118.5-88.5s118.5,39.6,118.5,88.5
	S367.4,349.5,302,349.5z"/>
<circle class="st0" cx="253.8" cy="244.8" r="18.8"/>
<circle class="st0" cx="349.8" cy="244.8" r="18.8"/>
<path class="st1" d="M520.2,480.4c0-0.4-0.2-0.8-0.2-1.2v-41c0-15.8-12.4-28.3-28.3-28.3h-379C96.9,410,84,422.4,84,438.3V479h436
	L520.2,480.4z"/>
</svg>
