<?xml version="1.0" encoding="utf-8"?>
<!-- Generator: Adobe Illustrator 18.0.0, SVG Export Plug-In . SVG Version: 6.00 Build 0)  -->
<!DOCTYPE svg PUBLIC "-//W3C//DTD SVG 1.1//EN" "http://www.w3.org/Graphics/SVG/1.1/DTD/svg11.dtd">
<svg version="1.1" id="Layer_1" xmlns="http://www.w3.org/2000/svg" xmlns:xlink="http://www.w3.org/1999/xlink" x="0px" y="0px"
	 viewBox="0 0 600 600" enable-background="new 0 0 600 600" xml:space="preserve">
<path fill="#A8A8A8" d="M177.7,346l171.1-55.3L496,328l35.4,90c0,0,10.9,51.3,10.9,54.7c0,3.3-25.7,26-25.7,26s-25.4,5.3-41.1-15.3
	c-15.7-20.7-68.2-75.3-118.6-72l-117.2-0.1L177.7,346z"/>
<path fill="#A8A8A8" d="M420,346l-167.3-55.3l-144,37.3L74,418c0,0-10.7,51.3-10.7,54.7c0,3.3,26.1,26,26.1,26s23.9,5.3,39.3-15.3
	c15.3-20.7,66.7-75.3,116-72l114.7-0.1L420,346z"/>
<path fill="#D8D8D8" d="M308,386c98,0,134.7,28.7,134.7,28.7c72.7,43.3,70,84,70,84C561.3,510,568,453,568,453
	c8-153.7-34.5-260.5-56-297s-67.5-35.5-72.5-35.5s-38.5,2-50.5,18.5s-31.5,17-31.5,17h-3.7H243.3c0,0-18.8-0.5-30.4-17
	c-11.6-16.5-43.9-18.5-48.8-18.5c-4.8,0-49.3-1-70,35.5C73.3,192.5,32.2,299.3,40,453c0,0,6.4,57,53.4,45.7c0,0-2.6-40.7,67.6-84
	c0,0,35.4-28.7,130.1-28.7"/>
<image display="none" overflow="visible" width="115" height="115" xlink:href="../coding-blocks.github.io/img/cb/logosc/color_game.png"  transform="matrix(5.2087 0 0 5.2087 1 0)">
</image>
<circle fill="#E4E4E4" cx="140.8" cy="221.3" r="52.3"/>
<circle fill="#636363" cx="140.3" cy="221.8" r="41.3"/>
<circle fill="#E4E4E4" cx="220.1" cy="319.9" r="57.3"/>
<polygon fill="#636363" points="269.3,305.3 234,305.3 234,269 205,269 205,305.3 169.7,305.3 169.7,334.3 205,334.3 205,368.7 
	234,368.7 234,334.3 269.3,334.3 "/>
<circle fill="#E4E4E4" cx="379.9" cy="321.4" r="48.3"/>
<circle fill="#636464" cx="380.9" cy="321.8" r="36.9"/>
<circle fill="#ABC27F" cx="301.3" cy="225.8" r="41.3"/>
<circle fill="#BFC5C6" cx="301.3" cy="225.8" r="32.9"/>
<ellipse fill="#636363" cx="240.8" cy="227.2" rx="11.5" ry="19.8"/>
<ellipse fill="#636363" cx="366.2" cy="226.7" rx="11.5" ry="19.8"/>
<circle fill="#EFBD17" cx="463.8" cy="177.2" r="22.8"/>
<circle fill="#B1401F" cx="506.8" cy="220.2" r="22.8"/>
<circle fill="#93993B" cx="464.2" cy="271" r="22.8"/>
<circle fill="#4F7ABE" cx="421.7" cy="219.8" r="22.8"/>
</svg>
