<?xml version="1.0" encoding="utf-8"?>
<!-- Generator: Adobe Illustrator 18.0.0, SVG Export Plug-In . SVG Version: 6.00 Build 0)  -->
<!DOCTYPE svg PUBLIC "-//W3C//DTD SVG 1.1//EN" "http://www.w3.org/Graphics/SVG/1.1/DTD/svg11.dtd">
<svg version="1.1" id="Layer_1" xmlns="http://www.w3.org/2000/svg" xmlns:xlink="http://www.w3.org/1999/xlink" x="0px" y="0px"
	 viewBox="0 0 300 400" enable-background="new 0 0 300 400" xml:space="preserve">
<path fill="#086DB5" d="M102.7,291.3c0,0-14.2,8.2,10.1,11c29.4,3.4,44.4,2.9,76.8-3.3c0,0,8.5,5.3,20.4,10
	C137.4,340.2,45.6,307.3,102.7,291.3"/>
<path fill="#086DB5" d="M93.8,250.7c0,0-15.9,11.8,8.4,14.3c31.4,3.2,56.2,3.5,99.1-4.8c0,0,5.9,6,15.3,9.3
	C128.8,295.2,31,271.6,93.8,250.7"/>
<path fill="#E11F21" d="M168.6,181.8c17.9,20.6-4.7,39.1-4.7,39.1s45.4-23.5,24.6-52.8c-19.5-27.4-34.4-41,46.5-87.9
	C235,80.2,108,111.9,168.6,181.8"/>
<path fill="#086DB5" d="M264.7,321.4c0,0,10.5,8.6-11.6,15.3c-41.9,12.7-174.5,16.5-211.3,0.5c-13.2-5.8,11.6-13.8,19.4-15.4
	c8.1-1.8,12.8-1.4,12.8-1.4c-14.7-10.4-95.2,20.4-40.9,29.2C181.2,373.5,303.1,338.7,264.7,321.4"/>
<path fill="#086DB5" d="M109.5,208.6c0,0-67.4,16-23.9,21.8c18.4,2.5,55,1.9,89.2-1c27.9-2.4,55.9-7.4,55.9-7.4s-9.8,4.2-17,9.1
	c-68.5,18-200.8,9.6-162.7-8.8C83.3,206.9,109.5,208.6,109.5,208.6"/>
<path fill="#086DB5" d="M230.5,276.2c69.6-36.2,37.4-70.9,15-66.2c-5.5,1.1-8,2.1-8,2.1s2-3.2,5.9-4.6
	c44.4-15.6,78.6,46.1-14.3,70.5C229.1,278.1,230.1,277.1,230.5,276.2"/>
<path fill="#E11F21" d="M188.5,4.4c0,0,38.6,38.6-36.6,97.9c-60.2,47.6-13.7,74.7,0,105.7c-35.2-31.7-61-59.6-43.7-85.6
	C133.7,84.2,204,65.7,188.5,4.4"/>
<path fill="#086DB5" d="M116.3,374.2c66.8,4.3,169.4-2.4,171.8-34c0,0-4.7,12-55.2,21.5c-57,10.7-127.4,9.5-169.1,2.6
	C63.9,364.4,72.4,371.4,116.3,374.2"/>
</svg>
