<?xml version="1.0" encoding="utf-8"?>
<!-- Generator: Adobe Illustrator 18.0.0, SVG Export Plug-In . SVG Version: 6.00 Build 0)  -->
<!DOCTYPE svg PUBLIC "-//W3C//DTD SVG 1.1//EN" "http://www.w3.org/Graphics/SVG/1.1/DTD/svg11.dtd">
<svg version="1.1" id="Layer_1" xmlns="http://www.w3.org/2000/svg" xmlns:xlink="http://www.w3.org/1999/xlink" x="0px" y="0px"
	 viewBox="0 0 600 600" enable-background="new 0 0 600 600" xml:space="preserve">
<image display="none" overflow="visible" width="115" height="115" xlink:href="../coding-blocks.github.io/img/cb/logosc/color_cp_old.png"  transform="matrix(5.407 0 0 5.407 -4.4018 -16.4018)">
</image>
<path fill="#5A8DBE" d="M265.5,321.5c0,0-65.4-32.9-63.7-121c1.6-88,71.8-100.5,95.1-100.5c23.2,0,94.5,7.6,97.2,98.3
	s-50.2,111.8-67.5,123.1v28.6h102.1v-28.6h-56.7c0,0,56.7-51.3,56.7-126.4s-61-124.8-131.8-124.8s-128,40.5-128,132.3
	c0,0-8.6,66.4,54,118.8h-54.4v28.6h97.1V321.5z"/>
<polygon fill="#175B90" points="206,443 222.8,443 222.8,395 241.7,395 213.6,367.4 186.6,393.3 206.6,394.4 "/>
<rect x="201" y="453.8" fill="#114875" width="26.9" height="38.1"/>
<polygon fill="#175B90" points="293.2,443 309.9,443 309.9,395 328.8,395 300.7,367.4 273.7,393.3 293.7,394.4 "/>
<rect x="288.2" y="453.8" fill="#114875" width="26.9" height="38.1"/>
<polygon fill="#175B90" points="378.9,443 395.6,443 395.6,395 414.5,395 386.4,367.4 359.4,393.3 379.4,394.4 "/>
<rect x="373.9" y="453.8" fill="#114875" width="26.9" height="38.1"/>
<rect x="81.4" y="513.1" fill="#114875" width="445.4" height="11.2"/>
</svg>
