<?xml version="1.0" encoding="utf-8"?>
<!-- Generator: Adobe Illustrator 18.0.0, SVG Export Plug-In . SVG Version: 6.00 Build 0)  -->
<!DOCTYPE svg PUBLIC "-//W3C//DTD SVG 1.1//EN" "http://www.w3.org/Graphics/SVG/1.1/DTD/svg11.dtd">
<svg version="1.1" id="Layer_1" xmlns="http://www.w3.org/2000/svg" xmlns:xlink="http://www.w3.org/1999/xlink" x="0px" y="0px"
	 viewBox="0 0 512 512" enable-background="new 0 0 512 512" xml:space="preserve">
<g transform="translate(0.000000,512.000000) scale(0.100000,-0.100000)">
	<path fill="#376F9E" d="M2295,5094c-16-2-79-9-140-15c-311-31-551-108-659-214c-59-57-92-118-116-210c-18-70-20-111-20-387v-308
		h600h600v-75v-74l-897-3c-836-3-902-5-963-22c-254-72-438-245-524-492c-55-158-103-432-113-639c-13-296,63-709,172-933
		c48-97,68-125,133-191c46-46,101-90,138-109c110-57,154-64,435-69l257-5l5,333c4,305,6,340,26,407c86,293,318,505,611,558
		c58,10,225,13,740,14c556,0,675,3,729,15c209,50,391,233,446,450c23,89,22,1352,0,1439c-25,97-83,194-160,272
		c-191,191-421,252-985,259C2453,5097,2312,5096,2295,5094z M1976,4711c75-34,134-126,134-211c0-121-108-230-227-230
		c-48,0-115,28-152,63c-93,88-95,241-5,331C1790,4728,1895,4748,1976,4711z"/>
	<path fill="#FFD141" d="M3920,3492c0-285-2-327-20-398c-54-215-201-400-400-503c-152-79-100-74-910-81c-797-7-763-4-900-71
		c-89-44-213-169-262-264c-69-134-68-118-68-856c0-727-1-714,60-828c38-71,157-189,243-239C1920,99,2357,10,2703,39
		c457,38,837,194,975,400c84,126,86,138,90,469l3,292h-605h-606v75v75h918c535,0,945,4,984,10c231,34,369,180,491,525
		c53,147,74,227,97,361c29,165,29,407,0,601c-88,604-251,886-549,949c-47,10-141,14-323,14h-258V3492z M3328,874
		c118-49,174-188,121-304c-41-90-108-134-204-134c-136,0-232,103-223,240C3032,832,3188,933,3328,874z"/>
</g>
</svg>
