<?xml version="1.0" encoding="utf-8"?>
<!-- Generator: Adobe Illustrator 18.0.0, SVG Export Plug-In . SVG Version: 6.00 Build 0)  -->
<!DOCTYPE svg PUBLIC "-//W3C//DTD SVG 1.1//EN" "http://www.w3.org/Graphics/SVG/1.1/DTD/svg11.dtd">
<svg version="1.1" id="Layer_1" xmlns="http://www.w3.org/2000/svg" xmlns:xlink="http://www.w3.org/1999/xlink" x="0px" y="0px"
	 viewBox="0 0 600 600" style="enable-background:new 0 0 600 600;" xml:space="preserve">
<style type="text/css">
	.st0{fill:#94181D;}
	.st1{fill:#CA4E2D;}
	.st2{fill:#E5A22F;}
</style>
<image style="display:none;overflow:visible;" width="240" height="240" xlink:href="../coding-blocks.github.io/img/cb/logosc/color_algo.png"  transform="matrix(2.5346 0 0 2.5346 -4.295 0)">
</image>
<path class="st0" d="M163.4,148.7L83.5,309.9c0,0-59.7,131.7,61.2,78.4c0,0,142.4-74.4,305.8,2.6c0,0-93.5-82.5-310.8-63
	c0,0-38.8-5.8-12.9-74.8S163.4,148.7,163.4,148.7z"/>
<path class="st1" d="M266.3,190.5l-25.2,48.9c0,0-5.9,15.1,7.9,15.8c15,0.8,84.2,0.2,84.2,0.2s16.3,0.8,7.2-13.7l-6.9-11.2
	c0,0,86.2,60.5,139.8,170.5l-22.9-10.1c0,0-93.2-82.1-310.8-63c0,0-38.8-3.3-12.9-74.8l36.7-104.3
	C163.4,148.7,251.5,172.9,266.3,190.5z"/>
<path class="st2" d="M163.4,148.7c0,0,102.6-253.8,248.6-1c0,0,67,100.3,98,169.3c0,0,49.7,112.5-37.7,84c0,0-30.6-82-138.8-170.5
	l-24.5-44c0,0-20-47.6-42.7,4C266.3,190.5,261.3,177,163.4,148.7z"/>
</svg>
