<?xml version="1.0" encoding="utf-8"?>
<!-- Generator: Adobe Illustrator 18.0.0, SVG Export Plug-In . SVG Version: 6.00 Build 0)  -->
<!DOCTYPE svg PUBLIC "-//W3C//DTD SVG 1.1//EN" "http://www.w3.org/Graphics/SVG/1.1/DTD/svg11.dtd">
<svg version="1.1" id="Layer_1" xmlns="http://www.w3.org/2000/svg" xmlns:xlink="http://www.w3.org/1999/xlink" x="0px" y="0px"
	 viewBox="0 0 600 600" enable-background="new 0 0 600 600" xml:space="preserve">
<image display="none" overflow="visible" width="115" height="115" xlink:href="../coding-blocks.github.io/img/cb/logosc/color_nodejs.png"  transform="matrix(5.2087 0 0 5.2087 1 0)">
</image>
<g>
	<path fill="#8CC84B" d="M287.6,35.5c8-4.6,18.4-4.6,26.4,0c40.1,22.7,80.3,45.3,120.4,68c7.5,4.3,12.6,12.7,12.5,21.4v136.5
		c0.1,9.1-5.5,17.7-13.5,21.8c-40,22.6-80,45.1-120,67.7c-8.2,4.7-18.8,4.3-26.7-0.7c-12-7-24-13.9-36-20.8c-2.5-1.5-5.2-2.6-6.9-5
		c1.5-2.1,4.3-2.3,6.5-3.2c5-1.6,9.6-4.1,14.2-6.6c1.2-0.8,2.6-0.5,3.7,0.2c10.3,5.9,20.4,11.9,30.7,17.8c2.2,1.3,4.4-0.4,6.3-1.5
		c39.3-22.2,78.6-44.3,117.8-66.5c1.5-0.7,2.3-2.2,2.1-3.8c0-45,0-90,0-135.1c0.2-1.8-0.9-3.5-2.5-4.2C382.8,98.9,343,76.5,303.1,54
		c-1.4-1-3.3-1-4.7,0c-39.9,22.5-79.7,45-119.6,67.4c-1.6,0.7-2.7,2.4-2.5,4.2c0,45,0,90,0,135.1c-0.1,1.6,0.7,3.1,2.2,3.8
		c10.6,6,21.3,12,31.9,18c6,3.2,13.4,5.1,20,2.7c5.8-2.1,9.9-8,9.8-14.2c0.1-44.8,0-89.5,0-134.3c-0.1-2,1.7-3.6,3.7-3.4
		c5.1,0,10.2-0.1,15.3,0c2.1,0,3.6,2.1,3.3,4.1c0,45,0.1,90.1,0,135.1c0,12-4.9,25.1-16,30.9c-13.7,7.1-30.6,5.6-44.1-1.2
		c-11.7-5.8-22.9-12.7-34.4-19c-8-4.1-13.5-12.8-13.4-21.8V124.9c-0.1-8.9,5.2-17.4,13-21.6C207.6,80.7,247.6,58.1,287.6,35.5z"/>
	<path fill="#8CC84B" d="M322.5,130.1c17.4-1.1,36.1-0.7,51.8,7.9c12.2,6.6,18.9,20.4,19.1,33.9c-0.3,1.8-2.2,2.8-4,2.7
		c-5.1,0-10.1,0.1-15.2,0c-2.1,0.1-3.4-1.9-3.7-3.8c-1.5-6.5-5-12.9-11.1-16c-9.3-4.7-20.2-4.4-30.3-4.3c-7.4,0.4-15.4,1-21.7,5.4
		c-4.8,3.3-6.3,10-4.6,15.4c1.6,3.9,6.1,5.1,9.7,6.3c21,5.5,43.3,5,63.9,12.2c8.5,3,16.9,8.7,19.8,17.6c3.8,12,2.1,26.3-6.4,35.9
		c-6.9,7.9-17,12.2-27,14.6c-13.4,3-27.2,3.1-40.8,1.7c-12.8-1.5-26-4.8-35.9-13.5c-8.4-7.3-12.5-18.7-12.1-29.7
		c0.1-1.9,1.9-3.2,3.7-3c5.1,0,10.2-0.1,15.3,0c2-0.1,3.5,1.6,3.6,3.5c0.9,6.2,3.3,12.6,8.6,16.3c10.4,6.7,23.4,6.2,35.2,6.4
		c9.8-0.4,20.9-0.6,28.9-7.1c4.2-3.7,5.5-9.9,4.3-15.2c-1.2-4.5-5.9-6.6-10-8c-20.8-6.6-43.3-4.2-63.8-11.6
		c-8.3-2.9-16.4-8.5-19.6-17.1c-4.5-12.1-2.4-27.1,7-36.4C296.6,134.9,309.9,131.3,322.5,130.1L322.5,130.1z"/>
</g>
<g transform="translate(0.000000,375.000000) scale(0.100000,-0.100000)">
	<path fill="#46473E" d="M3290.8,47.9c-48.4-27.5-91.6-52.3-95.5-56.3s28.8-70.7,70.7-147.9c49.7-89,73.3-141.3,62.8-145.2
		c-9.2-2.6-40.6-7.9-72-10.5c-126.9-14.4-273.5-120.4-335-242.1c-149.2-294.4,41.9-653,369-688.3
		c187.1-20.9,399.1,102.1,477.6,277.4c32.7,74.6,44.5,227.7,23.6,308.8c-14.4,58.9-388.6,753.7-405.6,753.7
		C3382.4,97.6,3339.2,75.4,3290.8,47.9z M3450.4-569.7c150.5-77.2,155.7-312.7,7.9-399.1c-157-91.6-348.1,15.7-348.1,196.3
		C3110.2-597.2,3292.1-488.6,3450.4-569.7z"/>
	<path fill="#46473E" d="M2139.3-327.7c-124.3-45.8-238.2-162.3-280-285.3c-28.8-85.1-27.5-247.3,2.6-323.2
		c77.2-200.2,253.9-311.4,475-298.3c174,10.5,314,107.3,391.2,272.2c28.8,60.2,34,91.6,35.3,189.7c0,107.3-3.9,125.6-43.2,205.4
		c-52.3,106-145.2,195-246,231.6C2389.2-302.8,2216.5-298.9,2139.3-327.7z M2355.2-544.9c65.4-18.3,147.9-92.9,167.5-151.8
		c32.7-102.1-13.1-218.5-111.2-280c-61.5-39.3-184.5-30.1-248.6,18.3c-151.8,116.5-113.8,344.1,65.4,408.3
		C2291.1-527.9,2293.7-527.9,2355.2-544.9z"/>
	<path fill="#46473E" d="M4215.9-325.1c-277.4-91.6-406.9-395.2-282.6-658.2c52.3-111.2,159.6-205.4,272.2-240.8
		c96.8-30.1,155.7-32.7,252.5-11.8l66.7,14.4l-39.3,43.2c-44.5,51-60.2,106-41.9,153.1c13.1,34,13.1,34-34,20.9
		c-91.6-24.9-201.5,18.3-251.2,99.4c-15.7,23.6-27.5,47.1-27.5,52.3c0,3.9,153.1,7.9,340.2,7.9h340.2l7.9,32.7
		c11.8,45.8-14.4,181.9-48.4,249.9c-37.9,79.8-136.1,174-221.1,213.3C4463.2-309.4,4299.7-297.6,4215.9-325.1z M4452.8-564.5
		c43.2-20.9,96.8-74.6,96.8-98.1c0-6.5-87.7-11.8-196.3-11.8c-210.7,0-226.4,6.5-166.2,62.8C4260.4-542.3,4366.4-524,4452.8-564.5z"
		/>
	<path fill="#46473E" d="M1188-334.2c-141.3-30.1-264.3-128.2-325.8-259.1c-34-72-35.3-82.4-39.3-358.5l-3.9-285.3h109.9h111.2
		l5.2,252.5c6.5,276.1,13.1,302.3,89,367.7c111.2,92.9,265.6,68,349.4-56.3c28.8-41.9,30.1-56.3,30.1-303.6v-260.4h117.8h117.8
		v272.2c0,252.5-2.6,276.1-30.1,344.1C1646-444.1,1511.2-346,1321.5-329C1279.6-325.1,1219.4-327.7,1188-334.2z"/>
</g>
<path fill="#8DC74B" d="M494.4,440.5h11.1v70.3c0,0-3.4,18.3-23.2,18.5l0.9-13.2c0,0,11.3,1,11.2-13.7V440.5z"/>
<circle fill="#8DC74C" cx="467.4" cy="481.8" r="10.6"/>
<circle fill="#8DC74B" cx="499.4" cy="429.6" r="5.8"/>
<g>
	<path fill="#8DC74B" d="M517.6,485.8l7.6-1.8c1.7,7.4,7,11.1,15.9,11.1c3.3,0,6.1-0.9,8.4-2.6c2.3-1.7,3.4-4.1,3.4-7.2
		c0-4.6-2.9-7.5-8.7-8.8l-10.7-2.3c-4.2-0.9-7.5-2.8-10-5.5c-2.5-2.7-3.7-6.3-3.7-10.8c0-4.9,1.7-9,5.1-12.4c3.4-3.3,8-5,13.7-5
		c11,0,17.9,5,20.4,14.9l-7.3,1.8c-2.1-6.1-6.4-9.2-12.8-9.2c-3.2,0-5.9,0.8-7.9,2.3c-2.1,1.5-3.1,3.7-3.1,6.4
		c0,4.3,2.6,7.1,7.9,8.2l9.9,2.1c10.4,2.2,15.6,8,15.6,17.4c0,5.4-1.9,9.8-5.8,13.1c-3.9,3.3-9,5-15.4,5
		C527.9,502.7,520.4,497,517.6,485.8z"/>
</g>
</svg>
