<svg xmlns="http://www.w3.org/2000/svg" viewBox="0 0 512 512"><path fill="#376F9E" d="M229.5 2.6c-1.6.2-7.9.9-14 1.5-31.1 3.1-55.1 10.8-65.9 21.4-5.9 5.7-9.2 11.8-11.6 21-1.8 7-2 11.1-2 38.7V116h120v14.9l-89.7.3c-83.6.3-90.2.5-96.3 2.2-25.4 7.2-43.8 24.5-52.4 49.2-5.5 15.8-10.3 43.2-11.3 63.9-1.3 29.6 6.3 70.9 17.2 93.3 4.8 9.7 6.8 12.5 13.3 19.1 4.6 4.6 10.1 9 13.8 10.9 11 5.7 15.4 6.4 43.5 6.9l25.7.5.5-33.3c.4-30.5.6-34 2.6-40.7 8.6-29.3 31.8-50.5 61.1-55.8 5.8-1 22.5-1.3 74-1.4 55.6 0 67.5-.3 72.9-1.5 20.9-5 39.1-23.3 44.6-45 2.3-8.9 2.2-135.2 0-143.9-2.5-9.7-8.3-19.4-16-27.2C340.4 9.3 317.4 3.2 261 2.5c-15.7-.2-29.8-.1-31.5.1zm-31.9 38.3C205.1 44.3 211 53.5 211 62c0 12.1-10.8 23-22.7 23-4.8 0-11.5-2.8-15.2-6.3-9.3-8.8-9.5-24.1-.5-33.1 6.4-6.4 16.9-8.4 25-4.7z"/><path fill="#FFD141" d="M392 162.8c0 28.5-.2 32.7-2 39.8-5.4 21.5-20.1 40-40 50.3-15.2 7.9-10 7.4-91 8.1-79.7.7-76.3.4-90 7.1-8.9 4.4-21.3 16.9-26.2 26.4-6.9 13.4-6.8 11.8-6.8 85.6 0 72.7-.1 71.4 6 82.8 3.8 7.1 15.7 18.9 24.3 23.9 25.7 15.3 69.4 24.2 104 21.3 45.7-3.8 83.7-19.4 97.5-40 8.4-12.6 8.6-13.8 9-46.9l.3-29.2H256v-15h91.8c53.5 0 94.5-.4 98.4-1 23.1-3.4 36.9-18 49.1-52.5 5.3-14.7 7.4-22.7 9.7-36.1 2.9-16.5 2.9-40.7 0-60.1-8.8-60.4-25.1-88.6-54.9-94.9-4.7-1-14.1-1.4-32.3-1.4H392v31.8zm-59.2 261.8c11.8 4.9 17.4 18.8 12.1 30.4-4.1 9-10.8 13.4-20.4 13.4-13.6 0-23.2-10.3-22.3-24 1-15.6 16.6-25.7 30.6-19.8z"/></svg>