<svg xmlns="http://www.w3.org/2000/svg" viewBox="0 0 115 115"><path fill="#5C8DBC" d="M9.7 83.3V35.5s0-3.4 3.3-5.2c3.3-1.8 39.6-23.5 39.6-23.5s4.6-3.1 9.4 0c0 0 43.1 23.9 42.4 25.3L85.3 43.3s-3.6-8.4-13.1-13c-11.3-5.5-29.7-6.2-42.9 13.3 0 0-8.6 13.5.3 31.6l-19 10.7s-.9-.6-.9-2.6z"/><path fill="#5C8DBC" d="M71 51.3c-2.8-4.7-7.9-7.9-13.8-7.9-8.8 0-16 7.2-16 16 0 2.8.7 5.4 2 7.7L71 51.3z"/><path fill="#194674" d="M43.1 67c2.8 4.7 7.9 7.9 13.8 7.9 8.8 0 16-7.2 16-16 0-2.8-.7-5.4-2-7.7L43.1 67z"/><path fill="#1B598E" d="M104.4 32.1s1.3 52.6-.3 53.6L58 58.6l46.4-26.5z"/><path fill="#FFF" d="M90 57h-3.9v-4.1h-4.2V57h-4v4.1h4V65h4.2v-3.9H90zm13.6 0h-3.9v-4.1h-4.2V57h-4v4.1h4V65h4.2v-3.9h3.9z"/><path fill="#194674" d="M29.5 75.1s9.2 17 28.5 16.1 27.3-16.6 27.3-16.6L104 85.4s4.1.8-41.6 25.7c0 0-4.9 3.3-10.2 0 0 0-41.3-23.1-41.6-25.3l18.9-10.7z"/></svg>