<svg xmlns="http://www.w3.org/2000/svg" viewBox="0 0 600 600"><path fill="#A8A8A8" d="M177.7 346l171.1-55.3L496 328l35.4 90s10.9 51.3 10.9 54.7c0 3.3-25.7 26-25.7 26s-25.4 5.3-41.1-15.3c-15.7-20.7-68.2-75.3-118.6-72l-117.2-.1-62-65.3z"/><path fill="#A8A8A8" d="M420 346l-167.3-55.3-144 37.3L74 418s-10.7 51.3-10.7 54.7c0 3.3 26.1 26 26.1 26s23.9 5.3 39.3-15.3c15.3-20.7 66.7-75.3 116-72l114.7-.1L420 346z"/><path fill="#D8D8D8" d="M308 386c98 0 134.7 28.7 134.7 28.7 72.7 43.3 70 84 70 84C561.3 510 568 453 568 453c8-153.7-34.5-260.5-56-297s-67.5-35.5-72.5-35.5-38.5 2-50.5 18.5-31.5 17-31.5 17H243.3s-18.8-.5-30.4-17c-11.6-16.5-43.9-18.5-48.8-18.5-4.8 0-49.3-1-70 35.5C73.3 192.5 32.2 299.3 40 453c0 0 6.4 57 53.4 45.7 0 0-2.6-40.7 67.6-84 0 0 35.4-28.7 130.1-28.7"/><circle fill="#E4E4E4" cx="140.8" cy="221.3" r="52.3"/><circle fill="#636363" cx="140.3" cy="221.8" r="41.3"/><circle fill="#E4E4E4" cx="220.1" cy="319.9" r="57.3"/><path fill="#636363" d="M269.3 305.3H234V269h-29v36.3h-35.3v29H205v34.4h29v-34.4h35.3z"/><circle fill="#E4E4E4" cx="379.9" cy="321.4" r="48.3"/><circle fill="#636464" cx="380.9" cy="321.8" r="36.9"/><circle fill="#ABC27F" cx="301.3" cy="225.8" r="41.3"/><circle fill="#BFC5C6" cx="301.3" cy="225.8" r="32.9"/><ellipse fill="#636363" cx="240.8" cy="227.2" rx="11.5" ry="19.8"/><ellipse fill="#636363" cx="366.2" cy="226.7" rx="11.5" ry="19.8"/><circle fill="#EFBD17" cx="463.8" cy="177.2" r="22.8"/><circle fill="#B1401F" cx="506.8" cy="220.2" r="22.8"/><circle fill="#93993B" cx="464.2" cy="271" r="22.8"/><circle fill="#4F7ABE" cx="421.7" cy="219.8" r="22.8"/></svg>