<svg id="Layer_1" xmlns="http://www.w3.org/2000/svg" viewBox="0 0 600 600"><style>.st0{fill:#94181d}.st1{fill:#ca4e2d}.st2{fill:#e5a22f}</style><path class="st0" d="M163.4 148.7L83.5 309.9s-59.7 131.7 61.2 78.4c0 0 142.4-74.4 305.8 2.6 0 0-93.5-82.5-310.8-63 0 0-38.8-5.8-12.9-74.8s36.6-104.4 36.6-104.4z"/><path class="st1" d="M266.3 190.5l-25.2 48.9s-5.9 15.1 7.9 15.8c15 .8 84.2.2 84.2.2s16.3.8 7.2-13.7l-6.9-11.2S419.7 291 473.3 401l-22.9-10.1s-93.2-82.1-310.8-63c0 0-38.8-3.3-12.9-74.8l36.7-104.3c0-.1 88.1 24.1 102.9 41.7z"/><path class="st2" d="M163.4 148.7s102.6-253.8 248.6-1c0 0 67 100.3 98 169.3 0 0 49.7 112.5-37.7 84 0 0-30.6-82-138.8-170.5l-24.5-44s-20-47.6-42.7 4c0 0-5-13.5-102.9-41.8z"/></svg>