<svg xmlns="http://www.w3.org/2000/svg" viewBox="0 0 600 600"><g fill="#8CC84B"><path d="M287.6 35.5c8-4.6 18.4-4.6 26.4 0 40.1 22.7 80.3 45.3 120.4 68 7.5 4.3 12.6 12.7 12.5 21.4v136.5c.1 9.1-5.5 17.7-13.5 21.8-40 22.6-80 45.1-120 67.7-8.2 4.7-18.8 4.3-26.7-.7-12-7-24-13.9-36-20.8-2.5-1.5-5.2-2.6-6.9-5 1.5-2.1 4.3-2.3 6.5-3.2 5-1.6 9.6-4.1 14.2-6.6 1.2-.8 2.6-.5 3.7.2 10.3 5.9 20.4 11.9 30.7 17.8 2.2 1.3 4.4-.4 6.3-1.5 39.3-22.2 78.6-44.3 117.8-66.5 1.5-.7 2.3-2.2 2.1-3.8V125.7c.2-1.8-.9-3.5-2.5-4.2-39.8-22.6-79.6-45-119.5-67.5-1.4-1-3.3-1-4.7 0-39.9 22.5-79.7 45-119.6 67.4-1.6.7-2.7 2.4-2.5 4.2v135.1c-.1 1.6.7 3.1 2.2 3.8 10.6 6 21.3 12 31.9 18 6 3.2 13.4 5.1 20 2.7 5.8-2.1 9.9-8 9.8-14.2.1-44.8 0-89.5 0-134.3-.1-2 1.7-3.6 3.7-3.4 5.1 0 10.2-.1 15.3 0 2.1 0 3.6 2.1 3.3 4.1 0 45 .1 90.1 0 135.1 0 12-4.9 25.1-16 30.9-13.7 7.1-30.6 5.6-44.1-1.2-11.7-5.8-22.9-12.7-34.4-19-8-4.1-13.5-12.8-13.4-21.8V124.9c-.1-8.9 5.2-17.4 13-21.6l120-67.8z"/><path d="M322.5 130.1c17.4-1.1 36.1-.7 51.8 7.9 12.2 6.6 18.9 20.4 19.1 33.9-.3 1.8-2.2 2.8-4 2.7-5.1 0-10.1.1-15.2 0-2.1.1-3.4-1.9-3.7-3.8-1.5-6.5-5-12.9-11.1-16-9.3-4.7-20.2-4.4-30.3-4.3-7.4.4-15.4 1-21.7 5.4-4.8 3.3-6.3 10-4.6 15.4 1.6 3.9 6.1 5.1 9.7 6.3 21 5.5 43.3 5 63.9 12.2 8.5 3 16.9 8.7 19.8 17.6 3.8 12 2.1 26.3-6.4 35.9-6.9 7.9-17 12.2-27 14.6-13.4 3-27.2 3.1-40.8 1.7-12.8-1.5-26-4.8-35.9-13.5-8.4-7.3-12.5-18.7-12.1-29.7.1-1.9 1.9-3.2 3.7-3 5.1 0 10.2-.1 15.3 0 2-.1 3.5 1.6 3.6 3.5.9 6.2 3.3 12.6 8.6 16.3 10.4 6.7 23.4 6.2 35.2 6.4 9.8-.4 20.9-.6 28.9-7.1 4.2-3.7 5.5-9.9 4.3-15.2-1.2-4.5-5.9-6.6-10-8-20.8-6.6-43.3-4.2-63.8-11.6-8.3-2.9-16.4-8.5-19.6-17.1-4.5-12.1-2.4-27.1 7-36.4 9.4-9.3 22.7-12.9 35.3-14.1z"/></g><path d="M329.08 370.21c-4.84 2.75-9.16 5.23-9.55 5.63s2.88 7.07 7.07 14.79c4.97 8.9 7.33 14.13 6.28 14.52-.92.26-4.06.79-7.2 1.05-12.69 1.44-27.35 12.04-33.5 24.21-14.92 29.44 4.19 65.3 36.9 68.83 18.71 2.09 39.91-10.21 47.76-27.74 3.27-7.46 4.45-22.77 2.36-30.88-1.44-5.89-38.86-75.37-40.56-75.37-.4-.01-4.72 2.21-9.56 4.96zm15.96 61.76c15.05 7.72 15.57 31.27.79 39.91-15.7 9.16-34.81-1.57-34.81-19.63 0-17.53 18.19-28.39 34.02-20.28zm-131.11-24.2c-12.43 4.58-23.82 16.23-28 28.53-2.88 8.51-2.75 24.73.26 32.32 7.72 20.02 25.39 31.14 47.5 29.83 17.4-1.05 31.4-10.73 39.12-27.22 2.88-6.02 3.4-9.16 3.53-18.97 0-10.73-.39-12.56-4.32-20.54-5.23-10.6-14.52-19.5-24.6-23.16-8.5-3.28-25.77-3.67-33.49-.79zm21.59 21.72c6.54 1.83 14.79 9.29 16.75 15.18 3.27 10.21-1.31 21.85-11.12 28-6.15 3.93-18.45 3.01-24.86-1.83-15.18-11.65-11.38-34.41 6.54-40.83 6.28-2.22 6.54-2.22 12.69-.52zm186.07-21.98c-27.74 9.16-40.69 39.52-28.26 65.82 5.23 11.12 15.96 20.54 27.22 24.08 9.68 3.01 15.57 3.27 25.25 1.18l6.67-1.44-3.93-4.32c-4.45-5.1-6.02-10.6-4.19-15.31 1.31-3.4 1.31-3.4-3.4-2.09-9.16 2.49-20.15-1.83-25.12-9.94-1.57-2.36-2.75-4.71-2.75-5.23 0-.39 15.31-.79 34.02-.79h34.02l.79-3.27c1.18-4.58-1.44-18.19-4.84-24.99-3.79-7.98-13.61-17.4-22.11-21.33-8.64-3.94-24.99-5.12-33.37-2.37zm23.69 23.94c4.32 2.09 9.68 7.46 9.68 9.81 0 .65-8.77 1.18-19.63 1.18-21.07 0-22.64-.65-16.62-6.28 7.33-6.93 17.93-8.76 26.57-4.71zM118.8 408.42c-14.13 3.01-26.43 12.82-32.58 25.91-3.4 7.2-3.53 8.24-3.93 35.85l-.39 28.53h22.11l.52-25.25c.65-27.61 1.31-30.23 8.9-36.77 11.12-9.29 26.56-6.8 34.94 5.63 2.88 4.19 3.01 5.63 3.01 30.36v26.04h23.56V471.5c0-25.25-.26-27.61-3.01-34.41-7.33-17.68-20.81-27.49-39.78-29.19-4.19-.39-10.21-.13-13.35.52z" fill="#46473E"/><path fill="#8DC74B" d="M494.4 440.5h11.1v70.3s-3.4 18.3-23.2 18.5l.9-13.2s11.3 1 11.2-13.7v-61.9z"/><circle fill="#8DC74C" cx="467.4" cy="481.8" r="10.6"/><circle fill="#8DC74B" cx="499.4" cy="429.6" r="5.8"/><path fill="#8DC74B" d="M517.6 485.8l7.6-1.8c1.7 7.4 7 11.1 15.9 11.1 3.3 0 6.1-.9 8.4-2.6 2.3-1.7 3.4-4.1 3.4-7.2 0-4.6-2.9-7.5-8.7-8.8l-10.7-2.3c-4.2-.9-7.5-2.8-10-5.5s-3.7-6.3-3.7-10.8c0-4.9 1.7-9 5.1-12.4 3.4-3.3 8-5 13.7-5 11 0 17.9 5 20.4 14.9l-7.3 1.8c-2.1-6.1-6.4-9.2-12.8-9.2-3.2 0-5.9.8-7.9 2.3-2.1 1.5-3.1 3.7-3.1 6.4 0 4.3 2.6 7.1 7.9 8.2l9.9 2.1c10.4 2.2 15.6 8 15.6 17.4 0 5.4-1.9 9.8-5.8 13.1-3.9 3.3-9 5-15.4 5-12.2.2-19.7-5.5-22.5-16.7z"/></svg>