<svg xmlns="http://www.w3.org/2000/svg" viewBox="0 0 600 600"><path fill="#3F3B3C" d="M141.3 145.3S82 138.6 64 186.6 80.7 262 80.7 262s-1.3-25.3 29.3-45.3l-12.7-19.3s-3.3-15.3 7.3-6l13.3 15.3c.1 0-4.6-32.7 23.4-61.4zm-47.3-6s28.7-10.7 58.7-2.7c0 0 18-11.3 36-10 0 0 6-36 34.7-44 0 0-2.7-26 6-23.3 0 0-6.5-7.9-16.4-10.7-10.1-2.9-23.7-.6-37.6 8.4-27.3 17.7-10.7 50.4-10.7 50.4l-3 4.7s-14.3 4-14.3-39.3c-.1-.1-57.4-4.8-53.4 66.5zM235.3 77s16-8 39 3.3c0 0 5.7-.1 11.3-3 0 0 34.7-47 18.3-6.3 0 0 32-1.3 42.7 12.3L359 68.9s7.7-8.5-3.7-22.9c0 0-17.3-21.3-39-24.7C294.7 18 276 24 276 24s-33 10-40.7 53zM373 116.7l-11.5-19s-1.3-12.3 5.7-19.7 14.4-13.7 14.4-13.7 18.7-15.3 47 0c0 0 11.3 8.7 17.3 19 0 0 .3 7.4-5.7 10 0 0-11.3 17.6 9.3 8 20.7-9.7 24.3-8 24.3-8s32.7-4.4 43 34.3c10.3 38.7-38.3 55-51.7 53.3.2.1 2.9-89.2-92.1-64.2z"/><path fill="#3F3B3C" d="M210 259.7S149.7 275 131.3 209c0 0-11.7-67 66-69.7 0 0 14.3-74.3 80.3-44 0 0 29.7-30.3 69.3 2.3 0 0-72-15.7-74 66.3l-10 7.5s-29.3-52.5-61 6.2c0 0-23.7-2.3-33.7 7.7s8 12.7 8.7 8.7 14-9 20-5.7c0 0-.3 43 11 56.7 11.4 13.7 2.1 14.7 2.1 14.7z"/><path fill="#3F3B3C" d="M124.7 228.3s12.7 40 61 44c0 0 14 19 43.7 30.7 0 0 7.7 45-41 41 0 0-41-9-21.7-48.7l-7.3-7.3s-10.3 7.7-9 23.3c0 0 0 7.3-14.3 2.3s-27.5-12-35.9-24.7-12.4-42 12.6-60.7c-.1.1 9.9-10.2 11.9.1zM249.5 199v21.5s7.5 18.5 10.5 0 9-32 9-32 21-42.8 62-16.6 27.5 78.1 27.5 78.1-14.5 26.4-41.5 11.2c0 0-5.5-2.2.5-13.2s4.5-16.5 4.5-16.5 2-19-12.5-2.5c0 0-5.5 34-41.5 41s-56.5-50-57-60-.3-32.2 18.3-46.6c0 0 20.7-4.4 23.2 14.1s-3 21.5-3 21.5z"/><path fill="#3F3B3C" d="M202.5 273s12.8 0 24.5-6c0 0 44.5 34 73.5 0 0 0 26.5 20 41.5 14.5 0 0-15.3 103-103.1 47.5l3.1-22.9s10.5 12.4 46.5 4.4c0 0 19.5-5.5-2.7-8.5 0 0-41.3 6.5-83.3-29zm150 33.2s23.5 1.8 30.5-2.7 13.5 2.7 13.5 2.7 17.5 8.8 27 12.3-12.5 19-12.5 19-32.5 22.5-64-3c0 0-13-5.5-5-13.5s10.5-14.8 10.5-14.8zM354 273v17.5s3.5 6.5 10.5 3.5 2.5 1.3 29-10.1c0 0 35 38.2 66 10.9s13-51.8 13.5-49.8-8-20-21.5-25c0 0-28.2 31-68.9 19.5 0 0-10.1-3-10.1 8.5S359 272 354 273z"/><path fill="#3F3B3C" d="M285.8 151s18.2-77 78.7-20c0 0 3.8 5.5 18.1-3.5 14.4-9 46.9 3 46.9 3s36.5 20 20.5 67c0 0-16.2 39-67.4 31.5 0 0-.3-1.4-9.7 0 0 0 1.9-8.5-3-23.5 0 0-8.1-10 0-14 0 0 7.6-21.5 34.6-16.5 0 0 18.5-3.6-.5-12.1s-45.5 18.2-45.5 18.2-33.5-41.6-64-28.1c0 0-6 7-8.7-2zM466 194.5s-9 11-5 18c0 0 19 10.5 25 30.5 0 0 13.5 8.5 18.5 15.5S521 248 521 248s28.5-42.3-7-76.1l-48 22.6zm25.5 67.8s1 34.7-48.5 58.7c0 0 31 14.5 48.5-5s8.5-50.9 0-53.7z"/><path fill="#FF7544" d="M229.3 358l-6.3 97h44l-6 86h20l61-105s13-14-11-21l-30.5 2 46.5-65s-7.9-2.7-16-14c0 0-46 33.3-80 8.7 0 0-20.2-10.7-21.7 11.3z"/></svg>