<svg xmlns="http://www.w3.org/2000/svg" viewBox="0 0 600 600"><path fill="#5A8DBE" d="M265.5 321.5s-65.4-32.9-63.7-121c1.6-88 71.8-100.5 95.1-100.5 23.2 0 94.5 7.6 97.2 98.3s-50.2 111.8-67.5 123.1V350h102.1v-28.6H372s56.7-51.3 56.7-126.4-61-124.8-131.8-124.8-128 40.5-128 132.3c0 0-8.6 66.4 54 118.8h-54.4v28.6h97.1v-28.4z"/><path fill="#175B90" d="M206 443h16.8v-48h18.9l-28.1-27.6-27 25.9 20 1.1z"/><path fill="#114875" d="M201 453.8h26.9v38.1H201z"/><path fill="#175B90" d="M293.2 443h16.7v-48h18.9l-28.1-27.6-27 25.9 20 1.1z"/><path fill="#114875" d="M288.2 453.8h26.9v38.1h-26.9z"/><path fill="#175B90" d="M378.9 443h16.7v-48h18.9l-28.1-27.6-27 25.9 20 1.1z"/><path fill="#114875" d="M373.9 453.8h26.9v38.1h-26.9zM81.4 513.1h445.4v11.2H81.4z"/></svg>