<svg width="44" height="45" viewBox="0 0 44 45" fill="none" xmlns="http://www.w3.org/2000/svg">
<path d="M6.31498 28.8824C6.07139 29.3862 6.16627 29.9951 6.55002 30.3933L6.85828 30.713C7.7489 29.6187 8.78692 28.4311 10.0459 27.1261C10.1348 27.0339 10.2264 26.9893 10.3157 26.9042L8.33258 24.8477C7.17966 27.0097 6.50735 28.4869 6.31498 28.8824Z" fill="white"/>
<path d="M17.1768 34.5197C15.9149 35.828 14.7724 36.9063 13.7229 37.8304L14.1405 38.2634C14.5279 38.665 15.1207 38.7617 15.6082 38.5017C16.2612 38.1528 17.288 37.6517 19.4678 36.3931L17.3911 34.2399C17.3091 34.3328 17.266 34.4274 17.1768 34.5197Z" fill="white"/>
<path d="M16.5048 27.8245C15.5938 26.88 13.0319 27.7269 11.8285 28.9743C7.80244 33.1486 5.9841 36.1082 5.16767 37.8556C4.93361 38.3563 5.03111 38.9557 5.4106 39.3492C5.79074 39.7437 6.36983 39.8437 6.85306 39.601C8.50069 38.7716 11.3203 36.8951 15.3942 32.6714C16.7175 31.2987 17.3705 28.7224 16.5058 27.8256L16.5048 27.8245Z" fill="white"/>
<path d="M3.96844 17.6972L0.403 21.394C-0.000127088 21.812 -0.0828535 22.459 0.20275 22.9716C0.481459 23.4774 1.06514 23.7351 1.62059 23.5809C3.54759 23.0451 5.24315 22.8188 6.38491 23.1224C8.00923 20.1281 9.75469 17.3718 11.6032 14.8681C10.534 14.1574 7.00076 14.5532 3.96844 17.6972Z" fill="white"/>
<path d="M21.3708 44.7682C21.8563 45.0228 22.4443 44.9245 22.8287 44.5255L26.3945 40.8288C29.155 37.9659 29.6408 34.2722 29.0145 33.101C26.3213 35.2055 23.5929 36.9826 21.0475 38.4703C21.2231 39.4986 21.1062 40.4962 20.6909 43.4098C20.6099 43.9738 20.8909 44.5194 21.3708 44.7682Z" fill="white"/>
<path d="M25.0607 13.4064C23.5864 14.9354 23.5864 17.4225 25.0607 18.9514C26.5354 20.4804 28.9344 20.4804 30.4091 18.9514C31.8837 17.4225 31.8837 14.9354 30.4091 13.4064C28.9344 11.8775 26.5354 11.8775 25.0607 13.4064Z" fill="white"/>
<path d="M42.9877 1.5704C42.9424 0.924038 42.4461 0.413142 41.8246 0.364809C38.7286 0.123146 35.6448 0.517976 32.622 1.47646C32.8495 3.62965 33.9236 5.95982 35.7574 7.86114C37.6131 9.78491 39.9216 10.8983 42.0354 11.1066C42.8495 8.14841 43.2356 4.98024 42.9877 1.5704Z" fill="white"/>
<path d="M33.9748 9.70969C31.8771 7.53473 30.5962 4.92612 30.1852 2.38628C22.6154 5.60516 15.3689 12.6345 9.64276 22.5093L12.4876 25.459C14.4314 24.6407 16.791 24.4246 18.2877 25.976C19.7863 27.5301 19.5739 29.9757 18.785 31.9883L21.7234 35.035C29.0513 30.456 37.5826 23.2418 41.2104 13.6437C38.7011 13.2506 36.1067 11.9201 33.9748 9.70969ZM32.1916 20.8C29.7344 23.3477 25.7357 23.3477 23.2782 20.8C20.8207 18.252 20.8207 14.1056 23.2782 11.5579C25.7357 9.01023 29.7344 9.01023 32.1916 11.5579C34.6491 14.1059 34.6491 18.252 32.1916 20.8Z" fill="white"/>
</svg>
