<svg width="43" height="35" viewBox="0 0 43 35" fill="none" xmlns="http://www.w3.org/2000/svg">
<path d="M17.6697 18.5473H25.081V20.8214H17.6697V18.5473Z" fill="white"/>
<path d="M34.4999 20.8215H27.5515V21.9585C27.5515 22.5868 26.9988 23.0955 26.3162 23.0955H16.4345C15.7519 23.0955 15.1993 22.5868 15.1993 21.9585V20.8215H8.2509C6.6538 20.8215 5.24135 19.8843 4.73568 18.4897L0.294373 6.22272V31.0548C0.294373 32.9356 1.95677 34.4659 4.00002 34.4659H38.7508C40.794 34.4659 42.4564 32.9356 42.4564 31.0548V6.22361L38.0148 18.4897C37.5094 19.8843 36.097 20.8215 34.4999 20.8215Z" fill="white"/>
<path d="M26.3163 0.354753H16.4346C14.3913 0.354753 12.7289 1.88501 12.7289 3.76586V4.90289H2.41968L7.07843 17.77C7.24731 18.2352 7.71888 18.5473 8.25093 18.5473H15.1993V17.4103C15.1993 16.7819 15.752 16.2732 16.4346 16.2732H26.3163C26.9989 16.2732 27.5515 16.7819 27.5515 17.4103V18.5473H34.4999C35.0319 18.5473 35.5035 18.2352 35.6724 17.77L40.3315 4.90289H30.0219V3.76586C30.0219 1.88501 28.3595 0.354753 26.3163 0.354753ZM15.1993 4.90289V3.76586C15.1993 3.13842 15.7529 2.62882 16.4346 2.62882H26.3163C26.9979 2.62882 27.5515 3.13842 27.5515 3.76586V4.90289H15.1993Z" fill="white"/>
</svg>
