<svg width="71" height="71" viewBox="0 0 71 71" fill="none" xmlns="http://www.w3.org/2000/svg">
<path d="M30.4203 70.71C46.9388 70.71 60.3847 57.1335 60.3847 40.4547C60.3999 33.8968 58.3009 27.5233 54.3918 22.2862C54.042 21.8101 53.3727 21.7179 52.9012 22.0865C52.4297 22.4398 52.3384 23.1155 52.6883 23.5916C56.3235 28.4447 58.2857 34.3729 58.2552 40.47C58.2552 55.9663 45.7676 68.5752 30.4203 68.5752C15.0731 68.5752 2.58545 55.9509 2.58545 40.4547C2.58545 24.9585 15.0731 12.3495 30.4203 12.3495C36.4436 12.3342 42.3148 14.3 47.1365 17.9706C47.608 18.3238 48.2773 18.2317 48.6271 17.7556C48.9769 17.2795 48.8857 16.6037 48.4142 16.2505C43.2274 12.3035 36.9152 10.1841 30.4203 10.1994C13.9019 10.1994 0.456001 23.7759 0.456001 40.4547C0.456001 57.1335 13.9019 70.71 30.4203 70.71Z" fill="url(#paint0_linear)"/>
<path d="M42.908 24.9278C43.2579 24.4517 43.1514 23.776 42.6799 23.4227C39.1207 20.7965 34.8314 19.3989 30.4356 19.3989C18.9518 19.3989 9.59742 28.8441 9.59742 40.4394C9.59742 52.0347 18.9518 61.4798 30.4356 61.4798C41.9194 61.4798 51.2737 52.0347 51.2737 40.4394C51.2889 36.0009 49.8896 31.6853 47.319 28.0916C46.9692 27.6155 46.3152 27.5079 45.8284 27.8458C45.3569 28.1991 45.2504 28.8595 45.5851 29.3509C51.6388 37.7978 49.7679 49.6081 41.4022 55.7206C33.0365 61.8331 21.3398 59.944 15.2861 51.4971C9.23237 43.0502 11.1032 31.2399 19.4689 25.1275C26.0246 20.3358 34.8922 20.3358 41.4326 25.1428C41.8889 25.5268 42.5582 25.4193 42.908 24.9278Z" fill="url(#paint1_linear)"/>
<path d="M30.4203 36.9223C31.0136 36.9223 31.4851 36.4462 31.4851 35.8473C31.4851 35.2483 31.0136 34.7722 30.4203 34.7722C27.3174 34.7722 24.7925 37.3216 24.7925 40.4547C24.7925 43.5877 27.3174 46.1371 30.4203 46.1371C33.5233 46.1371 36.0482 43.5877 36.0482 40.4547C36.0482 39.8557 35.5766 39.3796 34.9834 39.3796C34.3902 39.3796 33.9187 39.8557 33.9187 40.4547C33.9187 42.4051 32.3521 43.987 30.4203 43.987C28.4886 43.987 26.922 42.4051 26.922 40.4547C26.922 38.5042 28.4886 36.9223 30.4203 36.9223Z" fill="url(#paint2_linear)"/>
<path d="M69.4653 10.9213L60.552 10.0305L59.6698 1.03072C59.609 0.447115 59.0918 0.00173274 58.4986 0.0631647C58.2552 0.0938807 58.0271 0.201387 57.8446 0.370325L46.0109 12.3188C45.7524 12.5799 45.6459 12.9792 45.7372 13.3325L47.7449 21.4261L29.675 39.6868C29.2644 40.1015 29.2644 40.7926 29.675 41.2072C30.0857 41.6219 30.7702 41.6219 31.1809 41.2072L49.2507 22.9619L57.2666 24.9892C57.6316 25.0813 58.0119 24.9738 58.2705 24.7128L70.1041 12.7642C70.5148 12.3496 70.5148 11.6585 70.1041 11.2438C69.9368 11.0595 69.7086 10.952 69.4653 10.9213ZM47.9579 13.4093L57.7685 3.50336L58.4682 10.6141L49.5093 19.66L47.9579 13.4093ZM57.2057 22.7469L51.0151 21.1804L59.974 12.1346L67.0164 12.841L57.2057 22.7469Z" fill="url(#paint3_linear)"/>
<defs>
<linearGradient id="paint0_linear" x1="0.456001" y1="40.4546" x2="60.3848" y2="40.4546" gradientUnits="userSpaceOnUse">
<stop stop-color="#82DA3B"/>
<stop offset="1" stop-color="#27A87C"/>
</linearGradient>
<linearGradient id="paint1_linear" x1="9.59742" y1="40.4394" x2="51.2738" y2="40.4394" gradientUnits="userSpaceOnUse">
<stop stop-color="#82DA3B"/>
<stop offset="1" stop-color="#27A87C"/>
</linearGradient>
<linearGradient id="paint2_linear" x1="24.7925" y1="40.4547" x2="36.0482" y2="40.4547" gradientUnits="userSpaceOnUse">
<stop stop-color="#82DA3B"/>
<stop offset="1" stop-color="#27A87C"/>
</linearGradient>
<linearGradient id="paint3_linear" x1="29.367" y1="20.7879" x2="70.4121" y2="20.7879" gradientUnits="userSpaceOnUse">
<stop stop-color="#82DA3B"/>
<stop offset="1" stop-color="#27A87C"/>
</linearGradient>
</defs>
</svg>
