<svg width="73" height="53" viewBox="0 0 73 53" fill="none" xmlns="http://www.w3.org/2000/svg">
<path d="M60.6228 30.3038C56.7871 30.288 53.6843 27.1038 53.6999 23.2067C53.6999 22.1137 53.9493 21.0523 54.4327 20.0859C50.9868 21.7968 49.5523 26.0107 51.2363 29.5117C52.9202 33.0127 57.0678 34.4702 60.5136 32.7593C61.8858 32.0781 62.9928 30.9533 63.6789 29.5751C62.7433 30.0503 61.6831 30.3038 60.6228 30.3038Z" fill="#F3F3F3"/>
<path d="M7.92124 41.9158C6.7986 41.8999 5.89425 40.9653 5.89425 39.8247V3.10372H4.8028C3.69576 3.08788 2.79141 3.99085 2.77582 5.09977V5.11561V42.9772C2.77582 44.1178 3.68016 45.0524 4.8028 45.0683H42.9101L44.1263 41.8999L7.92124 41.9158Z" fill="#F3F3F3"/>
<path d="M4.80278 47.3019H43.4714C44.0795 47.3019 44.5628 46.8108 44.5628 46.1929C44.5628 45.5751 44.0795 45.084 43.4714 45.084H4.80278C3.68015 45.0682 2.7758 44.1335 2.7758 42.9929V5.13138C2.7758 4.00662 3.68015 3.10365 4.78719 3.10365H4.80278H59.8432C60.9502 3.0878 61.8546 3.99078 61.8702 5.0997V5.11554V14.1928C61.8702 14.8106 62.3535 15.3017 62.9616 15.3017C63.5697 15.3017 64.0531 14.8106 64.0531 14.1928V5.11554C64.0531 2.77097 62.1664 0.869971 59.8588 0.869971H59.8432H4.80278C2.49514 0.85413 0.608488 2.75513 0.592896 5.0997V5.11554V42.9771C0.592896 45.3692 2.47955 47.286 4.80278 47.3019Z" fill="url(#paint0_linear)"/>
<path d="M41.2885 20.8464H11.1956C10.5875 20.8464 10.1042 21.3375 10.1042 21.9554C10.1042 22.5732 10.5875 23.0643 11.1956 23.0643H41.2885C41.8966 23.0643 42.38 22.5732 42.38 21.9554C42.38 21.3375 41.8966 20.8464 41.2885 20.8464Z" fill="url(#paint1_linear)"/>
<path d="M11.1956 34.4702H41.2885C41.8966 34.4702 42.38 33.9791 42.38 33.3612C42.38 32.7434 41.8966 32.2523 41.2885 32.2523H11.1956C10.5875 32.2523 10.1042 32.7434 10.1042 33.3612C10.1042 33.9791 10.5875 34.4702 11.1956 34.4702Z" fill="url(#paint2_linear)"/>
<path d="M11.1956 28.6088H31.9332C32.5413 28.6088 33.0247 28.1177 33.0247 27.4999C33.0247 26.8821 32.5413 26.391 31.9332 26.391H11.1956C10.5875 26.391 10.1042 26.8821 10.1042 27.4999C10.1042 28.1177 10.5875 28.6088 11.1956 28.6088Z" fill="url(#paint3_linear)"/>
<path d="M57.5044 33.6146C61.9014 33.6305 65.4876 30.0186 65.5032 25.5354C65.5188 21.068 61.9637 17.4245 57.5512 17.4086C53.1542 17.3928 49.568 21.0047 49.5524 25.4879C49.5524 25.5037 49.5524 25.5037 49.5524 25.5196C49.5524 29.9869 53.1074 33.5988 57.5044 33.6146ZM57.5044 19.3571C60.8567 19.3413 63.5853 22.0819 63.6009 25.4879C63.6165 28.8938 60.9191 31.6661 57.5667 31.682C54.2144 31.6978 51.4858 28.9572 51.4702 25.5512C51.4702 25.5354 51.4702 25.5354 51.4702 25.5196C51.4546 22.1294 54.1677 19.3571 57.5044 19.3571Z" fill="url(#paint4_linear)"/>
<path d="M67 33.3612C68.6528 32.4107 69.3544 30.3513 68.6372 28.5612C70.29 27.2463 70.5706 24.8067 69.2765 23.1275C69.0894 22.8899 68.8711 22.6681 68.6372 22.478C69.4168 20.4978 68.4813 18.2483 66.5323 17.4562C66.2516 17.3453 65.9553 17.2661 65.6591 17.2186C65.3628 15.1116 63.4606 13.6383 61.3868 13.9393C61.075 13.9869 60.7787 14.0661 60.4981 14.177C59.2039 12.4977 56.8339 12.1967 55.1811 13.5116C54.9317 13.7017 54.7134 13.9235 54.5263 14.177C52.5772 13.3849 50.3787 14.3354 49.5991 16.3156C49.49 16.6007 49.412 16.9176 49.3653 17.2186C47.2915 17.5195 45.8414 19.4839 46.1533 21.5908C46.2 21.8918 46.278 22.1928 46.3872 22.478C44.7344 23.7928 44.4537 26.2325 45.7479 27.9117C45.935 28.1493 46.1533 28.3711 46.3872 28.5612C45.6699 30.3513 46.3716 32.3949 48.0243 33.3612L42.7698 47.0959C42.5827 47.587 42.8165 48.1573 43.3155 48.3474C43.5182 48.4266 43.7521 48.4425 43.9704 48.3632L49.3964 46.5098L52.359 51.7217C52.5305 52.0227 52.8423 52.2128 53.1853 52.2128C53.2165 52.2128 53.2321 52.2128 53.2633 52.2128C53.6219 52.1811 53.9494 51.9435 54.0741 51.5949L57.52 42.5969L60.9658 51.5949C61.1062 51.9435 61.418 52.1811 61.7766 52.2128C61.8078 52.2128 61.8234 52.2128 61.8546 52.2128C62.1976 52.2128 62.5095 52.0227 62.681 51.7217L65.6123 46.5098L71.054 48.3632C71.5529 48.5375 72.0987 48.2682 72.2546 47.7613C72.3326 47.5395 72.317 47.3177 72.239 47.0959L67 33.3612ZM48.5856 27.9592C48.5077 27.6582 48.2894 27.4206 48.0087 27.3097C47.042 26.9136 46.5587 25.7889 46.9485 24.8067C47.1356 24.3156 47.5254 23.9196 48.0087 23.7295C48.4921 23.5394 48.7416 22.9691 48.5389 22.478C48.5077 22.3829 48.4609 22.3037 48.3985 22.2245C47.9152 21.6067 47.8528 20.7512 48.2426 20.07C48.6168 19.3889 49.3808 19.0087 50.1449 19.1354C50.6594 19.2146 51.1428 18.8502 51.2363 18.3275C51.2519 18.2324 51.2519 18.1374 51.2363 18.0423C51.1116 17.2661 51.4858 16.4898 52.1563 16.0938C52.8267 15.6978 53.6687 15.7611 54.2612 16.2522C54.6666 16.5849 55.2747 16.5215 55.6021 16.0938C55.6645 16.0146 55.7113 15.9354 55.7425 15.8403C56.1167 14.8581 57.2081 14.3671 58.1748 14.7473C58.6738 14.9374 59.048 15.3334 59.2507 15.8403C59.4378 16.3314 59.9991 16.5849 60.4825 16.3948C60.576 16.3631 60.654 16.3156 60.732 16.2522C61.3401 15.7611 62.1664 15.6978 62.8369 16.0938C63.5074 16.4898 63.8816 17.2661 63.7568 18.0423C63.6789 18.5651 64.0375 19.0562 64.552 19.1354C64.6456 19.1512 64.7392 19.1512 64.8327 19.1354C65.5967 19.0087 66.3607 19.3889 66.735 20.07C67.1248 20.7512 67.0624 21.6067 66.579 22.2245C66.2516 22.6364 66.314 23.2542 66.735 23.5869C66.8129 23.6503 66.8909 23.6978 66.9844 23.7295C67.9511 24.1255 68.4345 25.2503 68.0447 26.2325C67.8576 26.7235 67.4678 27.1196 66.9844 27.3097C66.5011 27.4998 66.2516 28.0701 66.4543 28.5612C66.4855 28.6562 66.5323 28.7354 66.5946 28.8146C67.078 29.4325 67.1403 30.2879 66.7505 30.9691C66.4855 31.4285 66.0489 31.7612 65.5499 31.8721C65.3161 31.9196 65.0822 31.9354 64.8483 31.9038C64.3338 31.8246 63.8348 32.1889 63.7568 32.7117C63.7413 32.8067 63.7413 32.9018 63.7568 32.9968C63.8816 33.7731 63.5074 34.5493 62.8369 34.9454C62.1664 35.3414 61.3245 35.278 60.732 34.7869C60.3266 34.4543 59.7185 34.5176 59.391 34.9295C59.3287 35.0087 59.2819 35.0879 59.2507 35.183C58.97 35.9117 58.2684 36.4028 57.5044 36.4028C57.2705 36.4028 57.0366 36.3553 56.8183 36.2761C56.335 36.086 55.9452 35.6899 55.7581 35.1988C55.5709 34.7077 55.0096 34.4543 54.5263 34.6444C54.4327 34.6761 54.3548 34.7236 54.2768 34.7869C53.6687 35.278 52.8423 35.3414 52.1718 34.9454C51.5014 34.5493 51.1272 33.7731 51.2519 32.9968C51.3299 32.4741 50.9713 31.983 50.4567 31.9038C50.3632 31.8879 50.2696 31.8879 50.1761 31.9038C49.147 32.0622 48.1802 31.3335 48.0399 30.2721C47.962 29.7493 48.1023 29.2107 48.4297 28.7988C48.6012 28.5612 48.6636 28.2443 48.5856 27.9592ZM52.9982 48.9969L50.6438 44.8464C50.4099 44.4504 49.9422 44.2603 49.5212 44.4187L45.2645 45.8761L49.5524 34.6602C50.2852 36.6563 52.4837 37.6543 54.4483 36.9097C54.4795 36.8939 54.4951 36.8939 54.5263 36.878C54.8537 37.2899 55.2591 37.6384 55.7113 37.8919L56.4753 39.9038L52.9982 48.9969ZM65.4876 44.4187C65.051 44.2761 64.5832 44.4504 64.3649 44.8464L62.0105 48.9969L57.9254 38.3196C58.9389 38.2087 59.8744 37.686 60.4981 36.8622C62.4471 37.6543 64.6456 36.6879 65.4252 34.7236C65.4408 34.6919 65.4408 34.6761 65.4564 34.6444L69.7442 45.8603L65.4876 44.4187Z" fill="url(#paint5_linear)"/>
<defs>
<linearGradient id="paint0_linear" x1="0.592896" y1="24.0859" x2="64.0531" y2="24.0859" gradientUnits="userSpaceOnUse">
<stop stop-color="#F24F5F"/>
<stop offset="1" stop-color="#A4086C"/>
</linearGradient>
<linearGradient id="paint1_linear" x1="10.1042" y1="21.9554" x2="42.38" y2="21.9554" gradientUnits="userSpaceOnUse">
<stop stop-color="#F24F5F"/>
<stop offset="1" stop-color="#A4086C"/>
</linearGradient>
<linearGradient id="paint2_linear" x1="10.1042" y1="33.3612" x2="42.38" y2="33.3612" gradientUnits="userSpaceOnUse">
<stop stop-color="#F24F5F"/>
<stop offset="1" stop-color="#A4086C"/>
</linearGradient>
<linearGradient id="paint3_linear" x1="10.1042" y1="27.4999" x2="33.0247" y2="27.4999" gradientUnits="userSpaceOnUse">
<stop stop-color="#F24F5F"/>
<stop offset="1" stop-color="#A4086C"/>
</linearGradient>
<linearGradient id="paint4_linear" x1="49.5524" y1="25.5116" x2="65.5032" y2="25.5116" gradientUnits="userSpaceOnUse">
<stop stop-color="#F24F5F"/>
<stop offset="1" stop-color="#A4086C"/>
</linearGradient>
<linearGradient id="paint5_linear" x1="42.7056" y1="32.4526" x2="72.3058" y2="32.4526" gradientUnits="userSpaceOnUse">
<stop stop-color="#F24F5F"/>
<stop offset="1" stop-color="#A4086C"/>
</linearGradient>
</defs>
</svg>
