<svg width="51" height="39" viewBox="0 0 51 39" fill="none" xmlns="http://www.w3.org/2000/svg">
<path d="M28.5718 28.2803C27.6843 28.7813 26.5477 29.0573 25.3715 29.0573C24.1952 29.0573 23.0586 28.7814 22.1711 28.2803L7.68216 20.1004C7.68216 20.1004 6.37439 19.3625 6.37439 21.0341C6.37439 22.9323 6.37439 28.627 6.37439 28.627C6.37439 28.703 6.37439 29.0841 6.37439 29.2022C6.37439 33.5051 14.8795 38.1438 25.3711 38.1438C35.8626 38.1438 44.3678 33.5052 44.3678 29.2022C44.3678 29.0841 44.3678 28.703 44.3678 28.627C44.3678 28.627 44.3678 22.587 44.3678 20.5736C44.3678 19.2318 43.4381 19.8875 43.4381 19.8875L28.5718 28.2803Z" fill="white"/>
<path d="M49.4677 13.5938C50.581 12.9653 50.581 11.9369 49.4677 11.3082L27.3956 1.14811C26.2823 0.519626 24.4605 0.519626 23.3472 1.14811L1.27513 11.3082C0.161828 11.9367 0.161828 12.9652 1.27513 13.5938L23.3472 26.0549C24.4605 26.6833 26.2823 26.6833 27.3956 26.0549" fill="white"/>
<path d="M48.5549 32.064C48.5549 28.6234 48.5549 18.3018 48.5549 18.3018C48.5549 18.3018 48.5653 17.6499 48.1451 17.8652C47.8081 18.0379 46.9818 18.4618 46.6907 18.6949C46.3547 18.9637 46.4304 19.5673 46.4304 19.5673C46.4304 19.5673 46.4304 28.9398 46.4304 32.064C46.4304 32.2414 46.2648 32.326 46.1858 32.3688C45.4228 32.7817 44.9098 33.5439 44.9098 34.4177C44.9098 35.7308 46.0661 36.7953 47.4927 36.7953C48.9192 36.7953 50.0755 35.7308 50.0755 34.4177C50.0755 33.5406 49.5587 32.776 48.7909 32.3641C48.7145 32.3232 48.5549 32.2412 48.5549 32.064Z" fill="white"/>
</svg>
