<svg width="69" height="62" viewBox="0 0 69 62" fill="none" xmlns="http://www.w3.org/2000/svg">
<path d="M7.51393 42.9332V39.8702H2.89642V42.9332C2.89642 44.8264 4.48177 46.3347 6.37494 46.3347H10.9925C9.09927 46.3347 7.51393 44.8264 7.51393 42.9332Z" fill="#F3F3F3"/>
<path d="M10.9925 2.93018H6.37494C4.46638 2.93018 2.92721 4.45395 2.89642 6.34713V37.7154H7.51393V6.34713C7.54471 4.45395 9.08388 2.93018 10.9925 2.93018Z" fill="#F3F3F3"/>
<path d="M6.37494 48.4896H24.7526V59.2638H20.6123C20.012 59.2638 19.5348 59.741 19.5348 60.3412C19.5348 60.9415 20.012 61.4186 20.6123 61.4186H49.0869C49.6872 61.4186 50.1643 60.9415 50.1643 60.3412C50.1643 59.741 49.6872 59.2638 49.0869 59.2638H44.1461V48.4896H62.5238C65.6022 48.4896 68.1572 46.0116 68.1572 42.9332V6.34718C68.1572 3.26884 65.6022 0.775391 62.5238 0.775391H6.37494C3.2966 0.775391 0.741577 3.28424 0.741577 6.34718V42.9332C0.741577 46.0116 3.2966 48.4896 6.37494 48.4896ZM41.9913 59.2638H26.9075V48.4896H41.9913V59.2638ZM62.5238 46.3348H6.37494C4.48176 46.3348 2.89641 44.8264 2.89641 42.9332V39.8703H66.0023V42.9332C66.0023 44.8264 64.417 46.3348 62.5238 46.3348ZM6.37494 2.93023H62.5392C64.4324 2.93023 65.987 4.454 66.0177 6.34718V37.7154H2.89641V6.34718C2.9272 4.454 4.46637 2.93023 6.37494 2.93023Z" fill="url(#paint0_linear)"/>
<path d="M13.5166 33.7135H55.382C55.9823 33.7135 56.4594 33.221 56.4594 32.6053C56.4594 32.5437 56.4594 32.4976 56.444 32.436L53.3657 13.7043C53.2888 13.181 52.8424 12.7808 52.3037 12.7654H49.6255L48.7636 7.51685C48.6712 6.96275 48.1787 6.57795 47.6246 6.63952C47.4399 6.65491 43.1148 7.00892 38.9129 10.1026C37.2506 11.3186 35.5267 13.1194 34.5109 14.243C34.2954 13.9814 34.0491 13.6889 33.7721 13.3657C32.5254 11.9343 31.371 10.8415 30.3244 10.1026C25.7992 6.855 21.4587 6.6703 21.274 6.65491C20.7353 6.62413 20.2582 6.99353 20.1658 7.51685L19.3039 12.7654H16.595C16.0563 12.7808 15.6099 13.181 15.5329 13.7043L12.4546 32.4206C12.4084 32.7438 12.4854 33.067 12.7009 33.3133C12.901 33.5596 13.1934 33.7135 13.5166 33.7135ZM51.3956 14.9356L54.1199 31.5587H38.405C41.5295 29.8656 43.515 29.0806 45.2543 28.4957C47.7939 27.6492 50.7799 27.5106 50.8107 27.5106C51.1185 27.4953 51.411 27.3567 51.6111 27.1105C51.8112 26.8642 51.8881 26.541 51.8419 26.2178L49.9949 14.9202H51.3956V14.9356ZM40.1596 11.8573C42.1298 10.4259 44.3924 9.44081 46.7935 8.96366L47.563 13.6581C47.4861 13.9506 47.5323 14.2584 47.7016 14.5201L49.5024 25.4636C48.2865 25.5867 46.3625 25.8637 44.5617 26.464C42.3914 27.1874 39.898 28.1263 35.5114 30.7275V16.3517C36.2348 15.5205 38.2972 13.2272 40.1596 11.8573ZM29.0468 11.8727C30.8477 13.1656 32.7562 15.5205 33.3719 16.3055V30.7121C28.9853 28.1109 26.4918 27.172 24.3216 26.4486C22.5208 25.8483 20.5968 25.5713 19.3809 25.4482L21.1817 14.5201C21.351 14.2584 21.4126 13.9506 21.3202 13.6427L22.0898 8.93288C24.614 9.37924 26.9844 10.3797 29.0468 11.8727ZM17.5031 14.9356H18.9191L17.0721 26.2331C17.0259 26.541 17.1029 26.8642 17.303 27.1105C17.5031 27.3567 17.7801 27.4953 18.1034 27.5106C18.1341 27.5106 21.1047 27.6492 23.6597 28.4957C25.4144 29.0806 27.3845 29.8656 30.5091 31.5587H14.7787L17.5031 14.9356Z" fill="url(#paint1_linear)"/>
<defs>
<linearGradient id="paint0_linear" x1="0.741577" y1="31.097" x2="68.1572" y2="31.097" gradientUnits="userSpaceOnUse">
<stop stop-color="#271147"/>
<stop offset="1" stop-color="#553180"/>
</linearGradient>
<linearGradient id="paint1_linear" x1="12.4392" y1="20.1821" x2="56.4592" y2="20.1821" gradientUnits="userSpaceOnUse">
<stop stop-color="#271147"/>
<stop offset="1" stop-color="#553180"/>
</linearGradient>
</defs>
</svg>
