<svg width="49" height="35" viewBox="0 0 49 35" fill="none" xmlns="http://www.w3.org/2000/svg">
<path d="M45.3446 11.0162C45.151 9.7203 45.1237 7.48826 46.4756 6.73878C46.4997 6.72504 46.5177 6.70519 46.5389 6.68814C47.6442 6.37338 48.4091 5.93166 47.8086 5.33726L31.5042 0.963257L5.1036 4.23129C5.1036 4.23129 2.08039 4.61602 2.35046 8.79792C2.49707 11.074 3.29885 12.1918 4.00003 12.7419L1.83362 13.3232C1.23232 13.9176 1.99709 14.3594 3.10251 14.6737C3.12352 14.6912 3.14124 14.711 3.16581 14.7247C4.51687 15.4748 4.49087 17.7066 4.29653 19.0028C-0.557135 20.2299 1.18517 20.6297 1.18517 20.6297L2.24987 20.8591C1.50096 21.4617 0.7572 22.6043 0.896521 24.7713C1.16673 28.9524 3.64994 29.241 3.64994 29.241L20.9263 34.2407L47.003 28.6171C47.003 28.6171 48.7459 28.2166 43.8909 26.9894C43.6957 25.6952 43.6686 23.4637 45.0228 22.7117C45.0476 22.6983 45.0658 22.6781 45.0859 22.6613C46.1914 22.3465 46.9556 21.9052 46.355 21.3108L45.2215 21.0061C45.9775 20.6002 47.1129 19.5395 47.2908 16.7844C47.4135 14.8892 46.8582 13.7793 46.2155 13.1259L48.4558 12.6432C48.4559 12.6439 50.1988 12.2434 45.3446 11.0162ZM23.533 10.9627L27.9181 10.1602L42.7373 7.44882L44.9452 7.0445C44.2397 8.19411 44.2693 9.76737 44.3861 10.7786C44.4116 11.0073 44.4411 11.2162 44.4696 11.375L42.053 11.91L23.3487 16.0528L23.533 10.9627ZM4.69635 15.0317L6.90391 15.436L21.1357 18.0408L22.379 18.2675L26.1075 18.9499L26.2914 24.0401L7.06738 19.7818L5.17218 19.3624C5.20005 19.2034 5.22948 18.9948 5.25621 18.7654C5.37224 17.755 5.40239 16.1813 4.69635 15.0317ZM3.8387 8.59665C3.81198 7.48432 4.03461 6.67987 4.48458 6.27097C4.77094 6.0099 5.10888 5.95558 5.34066 5.95558C5.46312 5.95558 5.55128 5.97072 5.55728 5.97072L16.9326 9.27259L22.6079 10.92L22.4217 16.0458L6.50024 12.0716L5.66002 11.862C5.62916 11.8542 5.58729 11.8489 5.555 11.8476C5.48941 11.8434 3.91529 11.7144 3.8387 8.59665ZM20.9675 32.02L4.20622 27.836C4.17522 27.828 4.13378 27.8227 4.10148 27.8213C4.03475 27.8173 2.45992 27.6885 2.38376 24.5714C2.35661 23.4577 2.58038 22.654 3.02949 22.2447C3.31657 21.9837 3.65465 21.9293 3.886 21.9293C4.00874 21.9293 4.09662 21.944 4.10305 21.944C4.10305 21.944 4.10377 21.944 4.10305 21.944L21.1525 26.8941L20.9675 32.02ZM42.931 26.7519C42.9574 26.9815 42.9868 27.19 43.0154 27.349L21.894 32.0272L22.0786 26.9369L26.5942 26.1104L27.2611 26.254L29.7606 25.5307L41.2823 23.4227L43.491 23.0181C42.7848 24.1676 42.8141 25.7415 42.931 26.7519ZM44.0944 19.8341C44.056 19.8348 44.0175 19.8394 43.9814 19.8496L42.3884 20.2467L27.2205 24.0334L27.035 18.9076L32.0115 17.4625L44.0613 13.9636C44.0628 13.963 44.6951 13.8379 45.1592 14.2582C45.6085 14.6671 45.8314 15.4715 45.8051 16.5838C45.7265 19.7006 44.1517 19.8301 44.0944 19.8341Z" fill="white"/>
</svg>
