<svg width="67" height="52" viewBox="0 0 67 52" fill="none" xmlns="http://www.w3.org/2000/svg">
<path d="M4.87652 44.6481V36.8766H2.07384V44.6481C2.07384 47.3117 4.21316 49.537 6.83342 49.537H9.6361C7.01584 49.537 4.87652 47.3286 4.87652 44.6481Z" fill="#F3F3F3"/>
<path d="M9.6361 2.01416H6.83342C4.21316 2.01416 2.07384 4.23942 2.07384 6.90299V35.1739H4.87652V6.90299C4.87652 4.23942 7.01584 2.01416 9.6361 2.01416Z" fill="#F3F3F3"/>
<path d="M66.4692 6.85244C66.4692 3.24482 63.5836 0.311523 60.0346 0.311523H6.83342C3.28447 0.311523 0.398865 3.24482 0.398865 6.85244V44.5638C0.398865 48.1714 3.28447 51.1047 6.83342 51.1047H60.018C63.567 51.1047 66.4526 48.1714 66.4526 44.5638V6.85244H66.4692ZM60.018 49.5369H6.83342C4.21316 49.5369 2.07384 47.3117 2.07384 44.6481V36.8766H64.7776V44.6481C64.7776 47.3285 62.6549 49.5369 60.018 49.5369ZM64.7776 35.1739H2.07384V6.90301C2.07384 4.23944 4.21316 2.01418 6.83342 2.01418H60.018C62.6383 2.01418 64.7776 4.23944 64.7776 6.90301V35.1739Z" fill="url(#paint0_linear)"/>
<path d="M56.154 42.4229H21.8087V40.2482C21.7921 40.029 21.7092 39.8099 21.5433 39.6582C21.3775 39.5064 21.1619 39.4222 20.9463 39.439H14.9761C14.7605 39.4222 14.5449 39.5064 14.3791 39.6582C14.2133 39.8099 14.1137 40.029 14.1137 40.2482V42.4229H7.99429C7.52994 42.4229 7.14851 42.8106 7.14851 43.2826C7.14851 43.7547 7.52994 44.1424 7.99429 44.1424H14.1137V46.0811C14.1303 46.57 14.4952 46.9577 14.9761 46.9746H20.9463C21.4272 46.9577 21.8087 46.57 21.8087 46.0811V44.1424H56.154C56.6183 44.1424 56.9997 43.7547 56.9997 43.2826C56.9997 42.8106 56.6183 42.4229 56.154 42.4229ZM20.1337 45.2719H15.7887V41.1417H20.1337V45.2719Z" fill="url(#paint1_linear)"/>
<path d="M26.8834 29.0881C27.016 29.1556 27.1487 29.1893 27.298 29.1893C27.4472 29.1893 27.6131 29.1387 27.7457 29.0544L43.716 19.007C43.9648 18.8553 44.114 18.5856 44.114 18.2821C44.114 17.9787 43.9648 17.709 43.716 17.5572L27.7457 7.50985C27.4804 7.34127 27.1487 7.34127 26.8834 7.49299C26.618 7.64472 26.4522 7.9313 26.4356 8.23475V28.3127C26.4356 28.6498 26.6014 28.9364 26.8834 29.0881ZM28.1106 9.78568L41.643 18.299L28.1106 26.8123V9.78568Z" fill="url(#paint2_linear)"/>
<path d="M60.0346 13.3427C60.615 12.1121 60.6814 10.7129 60.2336 9.43167C59.3049 6.7681 56.4193 5.36889 53.8156 6.31294C52.5553 6.7681 51.5436 7.69529 50.9798 8.89221L50.4325 7.30756C50.3662 7.10526 50.1506 7.00412 49.9516 7.07155C49.7526 7.13898 49.6531 7.35813 49.7194 7.56043L50.6149 10.106C50.6481 10.2071 50.7144 10.2746 50.8139 10.3251C50.8637 10.342 50.93 10.3589 50.9798 10.3589C51.0295 10.3589 51.0627 10.3589 51.1124 10.342L53.7493 9.3811C53.9483 9.31366 54.0478 9.09451 53.9815 8.89221C53.9151 8.68992 53.6995 8.58877 53.5005 8.6562L51.6431 9.33052C52.1241 8.25161 52.9864 7.44242 54.0976 7.03783C56.3198 6.24551 58.7576 7.42557 59.5537 9.68454C60.3331 11.9435 59.1722 14.4216 56.95 15.2308C55.3413 15.804 53.5503 15.3657 52.3894 14.1013C52.2402 13.9496 52.008 13.9328 51.8421 14.0845C51.6929 14.2362 51.6763 14.4722 51.8256 14.6408C52.804 15.7029 54.1307 16.276 55.5072 16.276C56.071 16.276 56.6349 16.1749 57.1822 15.9726C58.4425 15.5006 59.4542 14.5734 60.0346 13.3427Z" fill="url(#paint3_linear)" stroke="url(#paint4_linear)"/>
<defs>
<linearGradient id="paint0_linear" x1="0.398865" y1="25.7078" x2="66.4611" y2="25.7078" gradientUnits="userSpaceOnUse">
<stop offset="0.000165344" stop-color="#39DDBF"/>
<stop offset="1" stop-color="#1770AE"/>
</linearGradient>
<linearGradient id="paint1_linear" x1="7.16189" y1="43.2073" x2="56.9929" y2="43.2073" gradientUnits="userSpaceOnUse">
<stop offset="0.000165344" stop-color="#39DDBF"/>
<stop offset="1" stop-color="#1770AE"/>
</linearGradient>
<linearGradient id="paint2_linear" x1="26.4319" y1="18.3024" x2="44.1" y2="18.3024" gradientUnits="userSpaceOnUse">
<stop offset="0.000165344" stop-color="#39DDBF"/>
<stop offset="1" stop-color="#1770AE"/>
</linearGradient>
<linearGradient id="paint3_linear" x1="49.6735" y1="11.1426" x2="60.5309" y2="11.1426" gradientUnits="userSpaceOnUse">
<stop offset="0.000165344" stop-color="#39DDBF"/>
<stop offset="1" stop-color="#1770AE"/>
</linearGradient>
<linearGradient id="paint4_linear" x1="49.6989" y1="16.276" x2="60.5261" y2="16.276" gradientUnits="userSpaceOnUse">
<stop stop-color="#39DEC0"/>
<stop offset="1" stop-color="#1D87B1"/>
</linearGradient>
</defs>
</svg>
