<svg width="67" height="64" viewBox="0 0 67 64" fill="none" xmlns="http://www.w3.org/2000/svg">
<path d="M34.2623 37.5959H37.008V46.2305H34.2623V37.5959Z" fill="#F3F3F3"/>
<path d="M33.0882 32.7006C32.9075 31.9238 32.4198 31.2735 31.7334 30.8942H28.9877C29.6741 31.2735 30.1799 31.9419 30.3425 32.7006C30.4147 32.9715 30.4689 33.2605 30.4689 33.5496C30.4689 34.4347 30.1438 35.3018 29.5296 35.952H32.2753C32.8714 35.3018 33.2146 34.4347 33.2146 33.5496C33.2146 33.2605 33.1604 32.9715 33.0882 32.7006Z" fill="#F3F3F3"/>
<path d="M18.0771 4.37641C18.0951 2.87711 19.3235 1.66683 20.8408 1.68489H18.0951C16.5958 1.66683 15.3494 2.87711 15.3314 4.37641V14.149C15.9455 14.0587 16.5597 14.0045 17.1739 14.0045C17.481 14.0045 17.77 14.0225 18.059 14.0406V4.37641H18.0771Z" fill="#F3F3F3"/>
<path d="M19.9377 14.0044C19.4861 14.0044 19.0164 14.0405 18.5648 14.0947C24.4717 14.7992 28.9335 19.821 28.9154 25.764V29.2503H31.6611V25.764C31.6611 19.279 26.4226 14.0044 19.9377 14.0044Z" fill="#F3F3F3"/>
<path d="M62.3878 0.0410492H18.059C16.9029 0.0229853 15.801 0.474582 14.9701 1.28746C14.1572 2.10033 13.6876 3.20223 13.6876 4.35832V15.1063H15.3314V4.37638C15.3314 3.65382 15.6204 2.9674 16.1262 2.46161C16.632 1.95582 17.3365 1.68486 18.041 1.68486H62.3697C63.0923 1.6668 63.7787 1.95582 64.2845 2.46161C64.7903 2.9674 65.0793 3.65382 65.0612 4.37638V29.2503H29.2044C28.7528 29.2503 28.3735 29.6116 28.3735 30.0813C28.3735 30.5329 28.7348 30.9122 29.2044 30.9122H65.0973V33.2786C65.0973 34.0011 64.8264 34.6876 64.3206 35.1933C63.8148 35.6991 63.1284 35.9882 62.4058 35.9882H28.3554V37.632H32.6004V46.2665H31.336C30.8844 46.2665 30.505 46.6278 30.505 47.0974C30.505 47.549 30.8663 47.9284 31.336 47.9284H51.7662C52.2178 47.9284 52.5971 47.5671 52.5971 47.0974C52.5971 46.6459 52.2359 46.2665 51.7662 46.2665H47.7922V37.632H62.3697C63.5258 37.632 64.6277 37.1804 65.4406 36.3675C66.2534 35.5546 66.705 34.4347 66.705 33.2966V4.37638C66.705 3.22029 66.2534 2.11839 65.4406 1.30552C64.6638 0.492646 63.5438 0.0410492 62.3878 0.0410492ZM46.1845 46.2304H34.2623V37.5958H46.1845V46.2304Z" fill="url(#paint0_linear)"/>
<path d="M21.2563 58.2971H20.2086C19.757 58.2971 19.3777 58.6584 19.3777 59.1281C19.3777 59.5796 19.739 59.959 20.2086 59.959H21.2563C21.7079 59.959 22.0873 59.5977 22.0873 59.1281C22.0873 58.6584 21.7079 58.2971 21.2563 58.2971Z" fill="url(#paint1_linear)"/>
<path d="M35.4907 62.5962V56.0751C35.4907 53.4559 33.8288 51.1437 31.3541 50.2947L25.4472 48.2896L26.3504 47.1877L28.518 49.1386C28.6987 49.3012 28.9335 49.3734 29.1683 49.3373L31.7515 49.0122C31.9863 48.976 32.185 48.8677 32.3114 48.6689C32.4379 48.4883 32.4921 48.2535 32.456 48.0187L29.8909 35.5546C31.0831 34.7778 31.6431 33.3508 31.3179 31.9599C31.1192 31.0928 30.487 30.3883 29.6561 30.0632L29.6741 25.7459C29.6922 21.5009 27.4523 17.581 23.7853 15.4495C20.1183 13.3179 15.5843 13.2999 11.9173 15.4134C8.25036 17.5268 5.97431 21.4467 5.95625 25.6917L5.97431 29.4671V29.4851L5.99238 30.0632C5.16144 30.3883 4.54727 31.0928 4.34856 31.9418C3.98729 33.4411 4.69178 35.0127 6.0827 35.6991L2.8312 47.9464C2.77701 48.1632 2.81313 48.3799 2.92152 48.5786C3.0299 48.7773 3.21054 48.9038 3.42731 48.958C4.31244 49.1567 5.19756 49.3012 6.10076 49.3734C6.35365 49.3915 6.60655 49.3012 6.78719 49.1205L8.44906 47.3684L8.52132 48.5606C8.52132 48.6328 8.53938 48.7231 8.55745 48.7954L4.31244 50.2405C1.83768 51.0895 0.175808 53.4017 0.193871 56.0209V62.5962C0.193871 62.813 0.266127 63.0117 0.410638 63.1562C0.555149 63.3007 0.771915 63.3729 0.970618 63.3729H34.732C34.9488 63.391 35.1475 63.3007 35.31 63.1562C35.4004 63.0117 35.4907 62.813 35.4907 62.5962ZM13.1637 49.0122L16.9933 52.8236V55.7139L10.8877 49.7889L13.1637 49.0122ZM16.8307 46.5193H18.7455C19.6487 46.5193 20.5338 46.4471 21.3647 46.2123V47.7477L17.8062 51.3424L14.2476 47.7477V46.2123C15.0966 46.429 15.9636 46.5374 16.8307 46.5193ZM18.6371 52.8417L22.4666 49.0122L24.7607 49.7889L18.6371 55.7319V52.8417ZM29.3309 47.6754L26.802 45.3994C26.6394 45.2549 26.4046 45.1646 26.1878 45.1826C25.971 45.2007 25.7543 45.3091 25.6097 45.4897L23.7492 47.7477L23.0085 47.4948V45.562C24.2369 44.9659 25.3388 44.1349 26.26 43.1053C27.4342 41.8047 28.3013 40.2693 28.8071 38.6074L30.6496 47.5129L29.3309 47.6754ZM21.5996 25.0233C22.4305 26.631 23.8034 28.0219 25.5375 28.9974C23.6047 28.4916 21.8163 27.5342 20.317 26.1975C20.7686 25.8181 21.2022 25.4388 21.5996 25.0233ZM17.7881 15.5037C20.5157 15.5037 23.1169 16.5875 25.0317 18.5203C26.9465 20.4532 28.0122 23.0724 27.9942 25.782L27.9761 28.2929C25.5194 27.4439 23.5866 25.7278 22.7737 23.6505C23.3698 22.8918 23.9117 22.0789 24.3814 21.248C24.5982 20.8506 24.4537 20.3629 24.0563 20.1461C23.6588 19.9293 23.1711 20.0558 22.9363 20.4532C19.0526 27.3174 13.4708 27.6245 10.7793 27.7871H10.7432C10.0387 27.8232 9.38838 28.311 9.02711 29.0516C8.93679 29.2322 8.79228 29.3587 8.6297 29.449C8.30455 29.6116 7.90715 29.5393 7.65425 29.2864L7.54587 29.178L7.5278 25.7459C7.582 20.0919 12.1522 15.5217 17.7881 15.5037ZM5.90206 32.3934C6.01044 31.9418 6.40785 31.6167 6.85944 31.5805C7.16653 31.5444 7.43749 31.3457 7.54587 31.0567C8.72002 31.4179 9.98449 30.876 10.5264 29.7561C10.5806 29.6116 10.707 29.4851 10.8516 29.4129H10.8877C12.6038 29.3225 15.7649 29.1419 18.9442 27.1549C21.4189 29.4851 24.6343 30.858 28.0122 31.0205C28.1206 31.3276 28.3916 31.5444 28.7167 31.5625C29.1864 31.5986 29.5657 31.9237 29.6741 32.3753C29.7825 32.8269 29.7102 33.3147 29.4574 33.694C29.2045 34.0914 28.8071 34.3443 28.3374 34.4346C27.94 34.5069 27.651 34.8501 27.651 35.2475V35.2656C27.6329 37.7403 26.6936 40.1247 25.0317 41.9673C23.3156 43.864 21.0757 44.8575 18.7274 44.8575H16.8126C14.4643 44.8575 12.2244 43.8459 10.5264 41.9673C8.86453 40.1247 7.94327 37.7584 7.92521 35.2656V35.2475C7.92521 34.8501 7.63619 34.5069 7.23878 34.4346C6.78719 34.3443 6.37172 34.0914 6.11882 33.694C5.88399 33.3147 5.79367 32.845 5.90206 32.3934ZM10.3458 47.8019L10.0567 47.7838L9.9303 45.4355C9.91224 45.1104 9.69547 44.8213 9.38838 44.713C9.0813 44.6046 8.73808 44.6768 8.50325 44.9117L5.81174 47.7658C5.32401 47.7116 4.90854 47.6393 4.58339 47.5851L6.89557 38.9325C7.41942 40.468 8.25036 41.895 9.35226 43.1053C10.2555 44.1349 11.3754 44.9659 12.6038 45.562V47.4948L11.5741 47.838C11.1586 47.8199 10.7251 47.82 10.3458 47.8019ZM1.76543 56.0751C1.76543 54.1604 2.97571 52.4624 4.76403 51.8663L9.11743 50.385L16.9752 58.026V61.7291H1.76543V56.0751ZM33.8469 61.7291H18.6371V58.0441L26.4949 50.385L30.8302 51.8663C32.6366 52.4804 33.8469 54.1784 33.8469 56.0751V61.7291Z" fill="url(#paint2_linear)"/>
<path d="M36.8093 10.8612L47.0154 16.9307L48.7134 16.0095L34.6959 7.68201V23.6143L36.8274 22.4763V10.8612H36.8093Z" fill="#F3F3F3"/>
<path d="M48.7134 15.5759L34.6958 7.23043C34.5333 7.14011 34.3346 7.12205 34.1539 7.23043C33.9913 7.32075 33.883 7.50139 33.883 7.70009V23.6324C33.883 23.8131 33.9913 23.9937 34.1359 24.084C34.2984 24.1743 34.4971 24.1743 34.6597 24.1021L48.6773 16.5153C48.8399 16.4249 48.9483 16.2443 48.9483 16.0637C48.9663 15.8469 48.876 15.6663 48.7134 15.5759ZM34.9487 22.7292V8.62135L47.3586 16.0095L34.9487 22.7292Z" fill="url(#paint3_linear)" stroke="url(#paint4_linear)"/>
<defs>
<linearGradient id="paint0_linear" x1="13.6949" y1="23.9639" x2="66.7384" y2="23.9639" gradientUnits="userSpaceOnUse">
<stop stop-color="#1B40DE"/>
<stop offset="1" stop-color="#2CB4ED"/>
</linearGradient>
<linearGradient id="paint1_linear" x1="19.3842" y1="59.1207" x2="22.0831" y2="59.1207" gradientUnits="userSpaceOnUse">
<stop stop-color="#1B40DE"/>
<stop offset="1" stop-color="#2CB4ED"/>
</linearGradient>
<linearGradient id="paint2_linear" x1="0.125427" y1="38.6279" x2="35.488" y2="38.6279" gradientUnits="userSpaceOnUse">
<stop stop-color="#1B40DE"/>
<stop offset="1" stop-color="#2CB4ED"/>
</linearGradient>
<linearGradient id="paint3_linear" x1="33.8829" y1="15.6486" x2="48.9628" y2="15.6486" gradientUnits="userSpaceOnUse">
<stop stop-color="#1B40DE"/>
<stop offset="1" stop-color="#2CB4ED"/>
</linearGradient>
<linearGradient id="paint4_linear" x1="33.2711" y1="24.1542" x2="48.9505" y2="24.1542" gradientUnits="userSpaceOnUse">
<stop stop-color="#1C40DE"/>
<stop offset="1" stop-color="#2AB5ED"/>
</linearGradient>
</defs>
</svg>
