<svg width="57" height="73" viewBox="0 0 57 73" fill="none" xmlns="http://www.w3.org/2000/svg">
<path d="M5.87079 51.5266C5.85294 51.5266 5.83509 51.5445 5.81725 51.5445C3.01513 52.9187 1.15895 55.6138 0.891235 58.6658C0.891235 58.6836 0.891235 58.7193 0.891235 58.7372V66.8222C0.891235 67.3041 1.28389 67.6968 1.78363 67.6968H33.0352V65.9477H2.67602V58.7728C2.90804 56.3455 4.38942 54.2216 6.60255 53.1151L15.6157 49.3492C19.9706 51.3124 25.0037 51.3124 29.3586 49.3492L32.9995 50.8662L33.6956 49.2599L30.1796 47.7964V42.4064H31.4111C32.6961 42.4064 33.767 41.4783 33.9633 40.2468H35.873C38.3361 40.2468 40.335 38.2835 40.335 35.874V34.7318H40.924C43.0479 34.7318 44.7791 33.0362 44.7791 30.9659V29.8593H45.8857C46.3854 29.8593 46.7781 29.4666 46.7781 28.9848C46.7781 28.5029 46.3854 28.1102 45.8857 28.1102H44.7791V27.1107C44.7791 25.2546 43.387 23.6661 41.513 23.3805V21.2923C41.513 19.454 40.2101 17.8655 38.3896 17.455V16.0272C38.3896 7.24605 31.1255 0.124756 22.148 0.124756C13.1706 0.124756 5.90648 7.24605 5.90648 16.0272V21.0603C4.63929 21.4351 3.65765 22.4524 3.35424 23.7196C2.76526 26.0577 4.10385 28.4493 6.42407 29.2346C6.67394 34.7496 9.83302 39.7292 14.7769 42.3707V47.8143L5.87079 51.5266ZM32.2321 39.8898C32.2321 40.3181 31.8751 40.6573 31.4468 40.6573H22.8798C22.4515 40.6573 22.0945 40.3181 22.0945 39.8898V38.8903C22.0945 38.462 22.4515 38.1229 22.8798 38.1229H31.4468C31.893 38.1229 32.2321 38.462 32.2321 38.8903V39.8898ZM38.5502 35.9097C38.5502 37.3554 37.3544 38.5155 35.873 38.5155H34.9093C35.8909 37.3732 36.694 36.1061 37.3187 34.7496C37.3723 34.7496 37.408 34.7675 37.4615 34.7675H38.5324V35.9097H38.5502ZM23.5223 16.2057C24.7717 17.5264 28.9838 21.328 36.6048 22.0598V22.8629C33.8205 22.8094 24.8431 22.2383 17.8467 17.223C18.0073 17.2052 18.1501 17.1873 18.3108 17.1695C20.0598 16.9553 21.8089 16.634 23.5223 16.2057ZM42.9765 27.1464V31.0016C42.9765 32.1081 42.0484 33.0184 40.924 33.0184H38.3717V25.1296H40.924C42.0484 25.1296 42.9765 26.022 42.9765 27.1464ZM39.7103 21.328V23.3627H38.3896V19.3291C39.1927 19.686 39.7103 20.4535 39.7103 21.328ZM7.69127 16.0629C7.67342 10.9941 10.422 6.31797 14.9018 3.78357C19.3816 1.24917 24.8966 1.24917 29.3764 3.78357C33.8562 6.31797 36.6048 11.012 36.587 16.0629V20.2928C30.7507 19.686 27.1097 17.0981 25.4856 15.6524C28.3769 14.7422 30.8221 13.5463 32.8032 12.065C33.0531 11.8687 33.1959 11.5652 33.1602 11.244C33.1245 10.9406 32.9103 10.6728 32.6069 10.5479C32.3035 10.423 31.9644 10.4765 31.7145 10.6728C27.7166 13.6713 22.0945 14.9206 18.0966 15.4382C15.4729 15.7773 12.8315 15.9201 10.19 15.8309C9.70808 15.813 9.27973 16.17 9.24404 16.6519L8.88708 22.3453L7.86975 21.8278C7.76266 21.7742 7.69127 21.6671 7.67342 21.56V16.0629H7.69127ZM8.19101 28.6099V28.5921C8.19101 28.1638 7.86975 27.8068 7.4414 27.7354C6.63825 27.5926 5.92433 27.1286 5.47814 26.4682C5.03194 25.79 4.88916 24.969 5.08548 24.2015C5.24611 23.559 5.71016 23.0414 6.35268 22.8272C6.54901 23.0771 6.78103 23.2734 7.0666 23.4162L8.88708 24.3265C9.24404 24.5049 9.67238 24.5049 10.0293 24.3086C10.3863 24.1123 10.6183 23.7732 10.6362 23.3627V23.3448L10.9931 17.6157C11.8855 17.6335 13.4026 17.6157 15.2766 17.4907C19.9171 21.4173 25.6462 23.1485 29.662 23.916C31.9465 24.3622 34.2489 24.5942 36.5691 24.6477V31.4299C36.0694 33.643 35.0342 35.7134 33.5171 37.4268C33.0352 36.7664 32.2499 36.3738 31.4289 36.3738H22.862C21.4341 36.3738 20.274 37.4982 20.274 38.9082V39.9076C20.274 41.2998 21.4341 42.442 22.862 42.442H24.4504C20.3633 43.0132 16.2225 41.8174 13.0992 39.1759C9.9758 36.5166 8.19101 32.6614 8.19101 28.6099ZM22.4515 44.3161C24.4861 44.3161 26.5208 43.9413 28.4126 43.1917V47.85C24.6467 49.492 20.3454 49.492 16.5617 47.85V43.2095C18.4357 43.9591 20.4346 44.3339 22.4515 44.3161Z" fill="url(#paint0_linear)"/>
<path d="M15.4908 25.8258C14.9911 25.8258 14.5806 26.2185 14.5806 26.7182V29.2526C14.5806 29.7345 14.9911 30.145 15.4908 30.145C15.9905 30.145 16.401 29.7523 16.401 29.2526V26.7182C16.401 26.2185 15.9905 25.8258 15.4908 25.8258Z" fill="url(#paint1_linear)"/>
<path d="M30.019 30.127C30.5187 30.127 30.9292 29.7344 30.9292 29.2347V26.7003C30.9292 26.2184 30.5187 25.8079 30.019 25.8079C29.5192 25.8079 29.1087 26.2005 29.1087 26.7003V29.2347C29.1087 29.7344 29.5192 30.127 30.019 30.127Z" fill="url(#paint2_linear)"/>
<path d="M42.8516 72.0696C50.3477 72.0696 56.416 66.1262 56.416 58.7908C56.416 51.4553 50.3477 45.512 42.8516 45.512C35.3555 45.512 29.2872 51.4553 29.2872 58.7908C29.305 66.1262 35.3555 72.0696 42.8516 72.0696ZM42.8516 47.2611C49.366 47.2611 54.6312 52.4191 54.6312 58.7908C54.6312 65.1625 49.3482 70.3205 42.8516 70.3205C36.355 70.3205 31.072 65.1625 31.072 58.7908C31.072 52.4369 36.3371 47.2789 42.8516 47.2611Z" fill="url(#paint3_linear)"/>
<path d="M47.7954 54.8464L41.281 61.2003L37.9256 57.9163C37.6043 57.595 37.0867 57.595 36.7476 57.9163C36.4264 58.2375 36.4264 58.7551 36.7476 59.0942L36.7655 59.1121L40.7098 62.9494C41.0311 63.2706 41.5487 63.2706 41.87 62.9494L48.9556 56.0244C49.2947 55.7031 49.2947 55.1855 48.9913 54.8464C48.6521 54.5252 48.1167 54.5073 47.7954 54.8464C47.8133 54.8286 47.7954 54.8464 47.7954 54.8464Z" fill="url(#paint4_linear)"/>
<defs>
<linearGradient id="paint0_linear" x1="0.891432" y1="33.9441" x2="46.7707" y2="33.9441" gradientUnits="userSpaceOnUse">
<stop stop-color="#EC6333"/>
<stop offset="1" stop-color="#F19633"/>
</linearGradient>
<linearGradient id="paint1_linear" x1="14.5906" y1="27.974" x2="16.3985" y2="27.974" gradientUnits="userSpaceOnUse">
<stop stop-color="#EC6333"/>
<stop offset="1" stop-color="#F19633"/>
</linearGradient>
<linearGradient id="paint2_linear" x1="29.1096" y1="27.9742" x2="30.9175" y2="27.9742" gradientUnits="userSpaceOnUse">
<stop stop-color="#EC6333"/>
<stop offset="1" stop-color="#F19633"/>
</linearGradient>
<linearGradient id="paint3_linear" x1="29.288" y1="58.8032" x2="56.4063" y2="58.8032" gradientUnits="userSpaceOnUse">
<stop stop-color="#EC6333"/>
<stop offset="1" stop-color="#F19633"/>
</linearGradient>
<linearGradient id="paint4_linear" x1="36.5011" y1="58.8929" x2="49.1932" y2="58.8929" gradientUnits="userSpaceOnUse">
<stop stop-color="#EC6333"/>
<stop offset="1" stop-color="#F19633"/>
</linearGradient>
</defs>
</svg>
